<svg id="Capa_1" data-name="Capa 1" xmlns="http://www.w3.org/2000/svg" viewBox="0 0 1475.8 1475.8"><defs><style>.cls-1{fill:#231f20;}.cls-1,.cls-3{fill-rule:evenodd;}.cls-2,.cls-3{fill:#76b949;}</style></defs><path class="cls-1" d="M248.38,1143.28h37.88c39,0,59.88-19.81,59.88-50.6,0-22-12.09-37.3-34.23-42.54,14.34-6.18,21.07-16.86,21.07-33.23,0-25.36-18.22-41.88-52.63-41.88H248.86c-21.29,0-26.69,8.32-26.69,27v117.2c0,18.37,5.84,24.1,26.21,24.1m12.31-32.86v-37.78h18.44c17.81,0,26.87,5.62,26.87,18.82,0,12.12-8.76,19-26.1,19Zm0-69.78V1007.7h15.56c11.82,0,19.48,6.44,19.48,16.56,0,9.5-7.29,16.38-18.89,16.38Z"/><path class="cls-1" d="M401.42,1118.35V1000.08c0-18.3-6.21-27.21-19.26-27.21s-19,8.91-19,27.21v118.27c0,18.33,6.1,27.24,19,27.24s19.26-8.91,19.26-27.24"/><path class="cls-1" d="M495.91,975H452.59c-21.21,0-26.35,8.31-26.35,26.94v117.2c0,18.37,5.58,24.1,25.87,24.1h44.94c18.19,0,27.1-5.47,27.1-17.67s-8.91-17.78-27.1-17.78H464.57v-31.45h26.94c18.22,0,27.28-5.69,27.28-17.85,0-12-9.06-17.7-27.28-17.7H464.57v-30h31.34c18.07,0,27-5.72,27-17.77s-8.91-18-27-18"/><path class="cls-1" d="M577.88,1118.35v-77.54l69.48,91.77c7.28,9.53,13.94,14,22,14,12.35,0,17.56-8,17.56-24V1000.08c0-18.3-6.17-27.21-19.19-27.21s-19.25,8.91-19.25,27.21v79l-70.82-93.73c-6.21-8-11.75-12.16-20.44-12.16-12.27,0-17.63,8.61-17.63,25.54v119.64c0,18.33,6.18,27.24,19.19,27.24s19.07-8.91,19.07-27.24"/><path class="cls-1" d="M780.4,975H737.16c-21.37,0-26.61,8.31-26.61,26.94v117.2c0,18.37,5.69,24.1,26,24.1H781.4c18.26,0,27.31-5.47,27.31-17.67s-9.05-17.78-27.31-17.78H749v-31.45h26.9c18.3,0,27.36-5.69,27.36-17.85,0-12-9.06-17.7-27.36-17.7H749v-30H780.4c18,0,27.06-5.72,27.06-17.77s-9-18-27.06-18"/><path class="cls-1" d="M935,1091.39c0-25.39-15.3-40.88-46.5-51.27-19.11-6.35-30.75-7.76-30.75-19.73,0-8.43,7.1-14.53,18.92-14.53,10.09,0,20.81,5.88,30,5.88,10.87,0,17.34-6.36,17.34-16.34,0-13.6-18.08-24.95-45.94-24.95-37.33,0-61.21,23-61.21,53.41,0,26.28,15.23,38.07,47.75,47.9,18.3,5.36,29.2,9.5,29.2,23.06,0,10-8.24,17.3-19,17.3-17.11,0-30.64-8.54-40.66-8.54-12.12,0-19.1,7.14-19.1,17.34,0,13.67,23,27,54.4,27,40.36,0,65.5-24,65.5-56.55"/><path class="cls-1" d="M970.11,1010.81v107.55c0,18.3,6.25,27.21,19.26,27.21s19.22-8.91,19.22-27.21V1010.81h14.23c18.11,0,27.2-5.73,27.2-17.74,0-12.16-9.09-18-27.2-18H956.1c-18.33,0-27.35,5.88-27.35,18,0,12,9,17.74,27.35,17.74Z"/><path class="cls-1" d="M1078.4,1076.36l20.77-62.35,19.37,62.35Zm-11.05,35.29h62.39l4.73,15.64c3.77,12.6,10.28,18.7,20.14,18.7,10.54,0,18.93-7,18.93-18,0-3.21-1-7.39-2.44-12l-42.76-121c-5.33-14.38-15.27-22.33-28.06-22.33-14.38,0-23.36,8.13-29.53,24.88L1027,1116.27a28.71,28.71,0,0,0-2,11.31c0,10.61,7.66,18.19,18.34,18.19,8.09,0,14.56-5.77,18.48-17Z"/><path class="cls-1" d="M1220.43,1049.59v-41h18.29c15.27,0,23.84,7.62,23.84,20.07,0,13.09-9,20.89-24.47,20.89Zm0,25.57,44.72,56.22c7.06,8.72,12.86,13.79,20.58,13.79a17.83,17.83,0,0,0,18.19-18.08c0-6.21-3.77-13.53-11.42-22.06l-30.09-33.6c25.17-4.25,40.14-21.59,40.14-45.53,0-30.87-22.84-52.49-64.2-52.49h-29.82c-21.4,0-26.62,8.28-26.62,26.91v116.42c0,18.3,6.21,27.21,19.33,27.21,12.87,0,19.19-8.91,19.19-27.21Z"/><path class="cls-1" d="M294.22,1208.13h-43c-21.36,0-26.5,8.25-26.5,27v116.2c0,18.23,6.06,27.25,19,27.25s19.29-9,19.29-27.25v-41.87h26.91c18.26,0,27.43-5.8,27.43-17.89s-9.17-17.67-27.43-17.67H263v-30.16h31.24c18.33,0,27.2-5.65,27.2-17.7s-8.87-17.93-27.2-17.93"/><path class="cls-1" d="M383.59,1309.47l20.91-62.68,19.37,62.68Zm-10.91,35.26H435l4.85,15.49c3.84,12.71,10,18.77,20,18.77,10.65,0,19.07-7.17,19.07-18,0-3.36-1.07-7.24-2.81-12l-42.5-121.08c-5.21-14.38-15.16-22.14-28.17-22.14-14.19,0-23.17,8-29.6,24.91l-43.61,118.72a30.31,30.31,0,0,0-2,11.2c0,10.57,7.8,18.18,18.33,18.18,8.25,0,14.71-5.54,18.59-17Z"/><path class="cls-1" d="M498.33,1347a57.83,57.83,0,0,0-1.41,11.68c0,12.49,7.87,19.92,18.63,19.92,12,0,17.85-7.91,20.21-24.65L549,1255.6l24.87,103.79c3.62,14.52,10,19.4,22.51,19.4,7.91,0,12.83-1.74,16.12-7,5.76-8.9,15.37-47.9,31.26-116.24l12,100.65c2,14.89,8,22.54,18.85,22.54,11.39,0,19.63-7.65,19.63-20.14a63.33,63.33,0,0,0-1.15-9.24l-18.63-115.72c-3.06-18.71-10.2-27.61-26.94-27.61-13.86,0-22.77,7.46-26.31,22.25l-24,101.05L571.69,1228.7c-3.66-15.45-12.53-22.62-26.76-22.62-16.26,0-22.73,8.61-26.09,26.05Z"/><path class="cls-1" d="M767.12,1351.35V1233.19c0-18.18-6.17-27.09-19.26-27.09s-19.22,8.91-19.22,27.09v118.16c0,18.23,6.14,27.25,19.22,27.25s19.26-9,19.26-27.25"/><path class="cls-1" d="M812.67,1233.2v119.2c0,18.14,5.91,24,26.21,24H883.6c18.22,0,27.38-5.76,27.38-17.74s-9.16-17.74-27.38-17.74H851.22V1233.2c0-18.22-6.28-27.09-19.15-27.09-13.12,0-19.4,8.87-19.4,27.09"/><path class="cls-1" d="M976.1,1351.35V1233.19c0-18.18-6.06-27.09-19.11-27.09s-19.22,8.91-19.22,27.09v118.16c0,18.23,6.07,27.25,19.22,27.25s19.11-9,19.11-27.25"/><path class="cls-1" d="M1060.31,1309.47l20.74-62.68,19.51,62.68Zm-10.86,35.26h62.24l4.8,15.49c3.92,12.71,10.13,18.77,20,18.77,10.57,0,19-7.17,19-18,0-3.36-.85-7.24-2.43-12l-42.69-121.08c-5.4-14.38-15.45-22.14-28.2-22.14-14.23,0-23.4,8-29.68,24.91l-43.69,118.72a33.77,33.77,0,0,0-1.85,11.2c0,10.57,7.8,18.18,18.26,18.18,8.43,0,14.78-5.54,18.59-17Z"/><path class="cls-1" d="M1223.35,1284.29v-40.88h18.18c15.45,0,24,7.39,24,20.07,0,13-8.8,20.81-24.47,20.81Zm0,25.61,44.76,56.07c6.91,8.8,12.93,13.79,20.66,13.79a17.79,17.79,0,0,0,18.11-18c0-6.24-3.84-13.52-11.42-22.06l-30.31-33.6c25.25-4.29,40.44-21.55,40.44-45.57,0-30.94-22.92-52.41-64.42-52.41h-29.72c-21.29,0-26.5,8.21-26.5,27v116.2c0,18.18,6.21,27.2,19.22,27.2s19.18-9,19.18-27.2Z"/><rect class="cls-2" x="222.16" y="1163.71" width="1080.87" height="18.11"/><path class="cls-3" d="M400.4,125S291.74,394.76,283.09,421.67c-23.43,72.48,42.61,145.69,42.61,145.69-.07-.48,224.5,222.36,224.5,348.13h198s-2.37-196.66-2.26-197.07c-2.88-63.61-13.12-76.91-36.44-107.89-8.35-11.23-39.47-43-59.47-62.64C599.14,498,510.06,408,501,400.27c-12.2-11.09-44.68-40.22-67.56-15.08-20.22,22.06,4.73,58.8,4.73,58.8l95.17,119s10.53,12.52,2,19.44c-8,6.54-14.71.22-19.26-5.14C484.34,539.09,405.46,444.58,404,443.51c-23.91-23.29-2.85-69.23-2.85-69.23s54-148.8,56.41-162.81c1.81-11.42,1.58-15.74-2.81-21.32-4.44-6.43-17.49-10.28-17.49-10.28L440.1,166c-.22-.15,4.1-16-9.54-26.76C418.47,129.87,400.4,125,400.4,125"/><path class="cls-3" d="M1121.27,125S1230,394.76,1238.73,421.67c23.4,72.48-42.8,145.69-42.8,145.69.11-.48-224.38,222.36-224.38,348.13H773.4s2.44-196.66,2.26-197.07c3-63.61,13-76.91,36.48-107.89,8.24-11.23,39.36-43,59.58-62.64C922.39,498,1011.61,408,1020.55,400.27c12.46-11.09,44.76-40.22,67.64-15.08,20,22.06-4.8,58.8-4.8,58.8L988.25,563s-10.57,12.52-2.07,19.44c8,6.54,14.79.22,19.22-5.14,31.93-38.18,110.73-132.69,112.1-133.76,24-23.29,3-69.23,3-69.23s-54-148.8-56.25-162.81c-2-11.42-1.74-15.74,2.63-21.32,4.5-6.43,17.51-10.28,17.51-10.28l-3-13.89c.26-.15-3.91-16,9.69-26.76,12.16-9.35,30.23-14.27,30.23-14.27"/><path class="cls-1" d="M984.65,396.83c-35.11,32-76.13,74.77-103.67,103.86-1.11-62.65-2-107.7-2-109.62,0-64.05-16-129.36-45.54-175.38,13.27-10.61,28.06-16.34,43.51-16.34,59.69,0,107.92,86.57,107.92,193.34Zm-449.32-1.47c0-89.3,40.29-161.45,90.22-161.45s90.26,72.15,90.26,161.45c0,4.58-.15,9.09-.23,13.41,0,0,.93,72.85,1.59,170-13.45-15.05-30-30.53-48.9-49.49-39.65-38.78-102.41-101.83-132.94-132ZM668.68,96.27A66.64,66.64,0,1,1,735.29,163a66.69,66.69,0,0,1-66.61-66.68m184.91,312.5s1.59,48.72,3.33,117l-3.47,3.48c-27.72,27.35-50.23,48.41-67.27,71.51-10.31,12.16-18.52,26.54-25.25,42a154.52,154.52,0,0,0-18.22-32.67c-.7-108.3-1.77-195-2.1-201.21.33-4.29.33-8.91.33-13.49,0-71-26.1-148.47-75.33-176,19.52-25.46,43.69-40.58,69.68-40.58,65.41,0,118.67,95,118.67,212.3,0,6.06-.07,11.83-.37,17.7M816.08,124.36a60.71,60.71,0,1,1,60.84,60.58,60.84,60.84,0,0,1-60.84-60.58M575,171a50.64,50.64,0,1,1,50.52,50.78A50.66,50.66,0,0,1,575,171"/></svg>