<svg xmlns="http://www.w3.org/2000/svg" xmlns:xlink="http://www.w3.org/1999/xlink" viewBox="0 0 1475.8 1475.8"><defs><style>.cls-1{fill:none;}.cls-2{isolation:isolate;}.cls-3{fill:#fff;}.cls-4{fill:#cf1417;}.cls-5{fill:#eda269;}.cls-6{clip-path:url(#clip-path);}.cls-7{fill:#fdc603;}.cls-8{fill:#2b2523;}.cls-9{fill:#efba86;}.cls-10,.cls-22{fill:#e30613;}.cls-11{fill:#bf9576;}.cls-12{fill:#ec660b;}.cls-13{fill:#9a7a5e;}.cls-14{fill:#0ba5d3;}.cls-15{fill:#fcdabf;}.cls-16{fill:#8f3d2a;}.cls-17{clip-path:url(#clip-path-2);}.cls-18{fill:#ea610b;}.cls-19{fill:#fdc504;}.cls-20{fill:#f2c19b;}.cls-21{fill:#e20e19;}.cls-22,.cls-23,.cls-24,.cls-25,.cls-26,.cls-27,.cls-28,.cls-29{fill-rule:evenodd;mix-blend-mode:darken;}.cls-23{fill:#ec6711;}.cls-24{fill:#bf8e6e;}.cls-25{fill:#fcdabe;}.cls-26{fill:#ecb783;}.cls-27{fill:#f1c19b;}.cls-28{fill:#10a7d5;}.cls-29{fill:#eb6111;}</style><clipPath id="clip-path"><path class="cls-1" d="M733.71,1152.81A965.22,965.22,0,0,1,89.4,906.88l-1.61-1.44-.55-2.08A670.63,670.63,0,0,1,65.1,732.24c0-178.6,69.55-346.5,195.83-472.78S555.12,63.63,733.71,63.63s346.49,69.54,472.78,195.83,195.83,294.18,195.83,472.78a671.07,671.07,0,0,1-22.13,171.12l-.56,2.08-1.6,1.44A965.27,965.27,0,0,1,733.71,1152.81Z"/></clipPath><clipPath id="clip-path-2"><path class="cls-1" d="M1013.78,883.62c7.63-9.9,14-17.7,18.42-22.73a64,64,0,0,1,18.48-14.54l-22.56-17.22-31.83,41.45Z"/></clipPath></defs><g class="cls-2"><g id="Capa_1" data-name="Capa 1"><circle class="cls-3" cx="733.24" cy="735.84" r="704.5"/><path class="cls-4" d="M1396.51,455.64a722.1,722.1,0,1,0,56.58,280.2A717.52,717.52,0,0,0,1396.51,455.64ZM245.93,248.54C376.09,118.37,549.16,46.69,733.24,46.69s357.14,71.68,487.3,201.85,201.85,303.22,201.85,487.3a694.5,694.5,0,0,1-17.88,156.88c-152,173.38-396.1,285.79-671.27,285.79S214,1066.1,62,892.72A694.5,694.5,0,0,1,44.08,735.84C44.08,551.76,115.77,378.7,245.93,248.54Z"/><path id="COLGATE" class="cls-3" d="M658.72,1292.17l30.85-79.58H669.09l-30.84,79.58Zm125.45,1.15c15.86,0,20-2.47,29.71-2.75,10.81-.31,16,1.6,16,1.6-.69-3.12-1.42-6.46,1.92-15.23,2.41-6.28,5.23-13.73,8-20.84,6.32-16.46-7.23-23.78-29.29-23.78a150.47,150.47,0,0,0-28.34,2.5L777,1248.3c4.93-1.53,15.56-4.25,31.13-4.14,14.54.09,13.25,6.11,12.35,9a167.93,167.93,0,0,0-24.59,0c-6.71.53-13.18,1.4-19.68,4-9.81,3.9-14.19,10.76-14.79,18.65C760.75,1284.83,767,1293.32,784.17,1293.32Zm-1.71-19.93c.91-5.22,4.94-8,15.78-9.15a107.17,107.17,0,0,1,18.09-.29l-5,13.12a44.33,44.33,0,0,1-16.8,4C784.42,1281.46,781.73,1277.56,782.46,1273.39Zm-98,13.53c3.76,4.11,9.45,5.72,16.19,6,10,.44,19.11-1.56,27.85-7.27-5.12,15.19-22.59,18.34-34.31,18.27-5.72,0-12-.27-16.94-2.65l-5.14,12.91a82.84,82.84,0,0,0,19,2.26c28.76,0,47.25-10.29,55-30.52l19.64-51.73a47.6,47.6,0,0,1-9.83,1.59c-10.53,0-11-2.89-28.14-2.89-24.6,0-44.83,18.12-47.71,38.12A19,19,0,0,0,684.49,1286.92Zm19.49-25.6c5.39-11.63,16.28-17,23.2-17.21,5.16-.2,9.46.58,12.9,3.86C732,1279.55,715.53,1282,710.65,1282,698.69,1282,699.77,1270.39,704,1261.32Zm-192.84-4.52c3.39-18.84,21.56-33.14,43.11-33.14a46.46,46.46,0,0,1,17.92,3.46l6.28-12.26a50.83,50.83,0,0,0-19.84-3.92c-34.42,0-66.61,19.63-71.18,45.77-4,23.09,15.91,35.94,40.39,35.94a91.33,91.33,0,0,0,19.91-2.45l6.56-14.73c-3.74,1.77-12.79,4.48-19.95,4.48C515,1280,509.09,1268.22,511.14,1256.8Zm426-24.83c-22.26,0-41.21,12.41-46.13,30.17-2.48,9-1.19,16.84,3.72,22.75,5.4,6.53,14.89,10.12,26.68,10.12a81.55,81.55,0,0,0,22.47-3.46l6.13-12.61c-5.73,2.79-15.64,4.3-22.26,4.3-5.78,0-10.49-1.93-13.28-5.44-2.55-3.18-3.19-7.43-1.92-12h47l.23-.61c3.68-10.24,3.22-19.12-1.32-25C954.39,1234.71,947.16,1232,937.17,1232Zm5.25,23.65H915.69c2-6.35,8-13.26,18.71-13.26,3.73,0,6.34.94,7.77,2.82C943.87,1247.39,944,1251,942.42,1255.62ZM973,1229.5v-.09c1.09-.3,1.83-1,1.83-1.78a2.08,2.08,0,0,0-.84-1.73,5.43,5.43,0,0,0-3.17-.63,21.11,21.11,0,0,0-3.44.29v7.83h2.44v-2.86h.79c.79,0,1.16.4,1.31,1.19a4.34,4.34,0,0,0,.54,1.67h2.7a9.13,9.13,0,0,1-.54-1.87A2.31,2.31,0,0,0,973,1229.5Zm-2.39-.59h-.71v-1.86c.18,0,.5,0,.8,0,.78,0,1.36.34,1.36,1S971.4,1228.91,970.56,1228.91Zm-330.84,30.25c3.84-16.82-11-26.27-30.66-26.27-20.73,0-43.52,12.41-47.72,33.33-4.47,22.34,15.42,27.14,28.18,27.28C618.23,1293.85,635.7,1276.67,639.72,1259.16Zm-21-2.58c-5.21,25.62-20.76,26.93-23.81,26.93-4.94,0-8.51-1.24-10.6-3.68-2.28-2.65-2.85-6.77-1.74-12.23,2-9.91,10.64-24.7,26.08-24.7,3.74,0,6.53,1.06,8.29,3.13C619,1248.43,619.63,1252.17,618.73,1256.58ZM971,1220.88h-.16a8.69,8.69,0,1,0,.16,0Zm-.16,14.87a6.38,6.38,0,0,1-.06-12.75h0a6.38,6.38,0,0,1,0,12.75Zm-103.13,43.33c-1.3-1.7-1-5.11.9-9.79,0,0,9.47-23.24,11.1-27.28H894l3.67-9.55H883.35l4.31-11.58-21.8,3.75-3,7.83h-9.62l-3.47,9.55h9.53l-11.45,28.37c-2.94,7.2-3.1,12.47-.47,16.09s7.67,5.28,15.59,5.28a65.72,65.72,0,0,0,15.15-2.15l4.63-11.17h0a33.56,33.56,0,0,1-10.32,2.3C870,1280.82,868.55,1280.28,867.66,1279.08ZM796.07,1364a157.29,157.29,0,0,1-138.34-.09c-21.71-10.47-41.14-25.92-57.71-44.6l-5.87,15.16a160,160,0,0,0,265.44-.33l-5.71-14.72C837.27,1338.06,817.8,1353.49,796.07,1364Z"/><path class="cls-5" d="M764.18,552.69c35.39,20.4,29,69,10,86-10.12,9-29.28,31.33-39.48,31.73-5.64-20.87,15.52-68,22.69-87.8C761.26,571.94,764.19,564,764.18,552.69Z"/><g class="cls-6"><circle class="cls-7" cx="1156.18" cy="771.78" r="15.79"/><circle class="cls-7" cx="1222.22" cy="823.71" r="20.79"/><circle class="cls-7" cx="1192.39" cy="900.39" r="14.28"/><path class="cls-8" d="M915,446s-22.67-3.59-65.09-39.43-64.63-58.23-86.86-62.37-43.37,6.29-50.72,17.74-20.27,32.1.38,54.14L796.11,483a63.28,63.28,0,0,0,40.62,14.24,54.15,54.15,0,0,0,39.47-17.54C906.15,448,902.92,450.9,915,446Z"/><path class="cls-9" d="M1145.24,848.4a46.2,46.2,0,0,0-1-5.22c-3-11.93-9.93-27.85-19.26-35.8-27.52-23.45-71.57-13.74-105.8-17.85q-27.6-3.31-55.14-7.09c-12.64-1.72-37.1-10-48.86-2.14-11.34,7.55-13.43,38.46-13.86,49.53-.29,7.28.42,17.16,7.54,21.23,6.51,3.72,20.48.92,27.88,1.11q38.53,1,77.1.48c12.41-.17,24.9-1.21,37.16-1.63,15.56-.53,30.22,5.33,45.18,9.42C1114.24,865.39,1149.13,876.84,1145.24,848.4Z"/><path class="cls-10" d="M719.81,801.39c33.62-9.54,67.1-29.56,102.75-35.77,35.47-6.17,79.83-1.6,114.1-3.06-8.31,29.3,13.52,87,3.89,109.82-13.77,32.61-57.08,37.25-68.65,75-15.07,49.18,3.46,124.3,8.33,174.79,11.86,123.1,29.61,246.15,24.9,370.15a3015.15,3015.15,0,0,1-327.69,0c11.06-110.73-12.3-225.85,7.86-337.66,17.36-96.34,51-199.94,16.94-295-11.49-32.07-14.28-51.59-12.15-89.23C631.08,753.63,694.32,769,719.81,801.39Z"/><path class="cls-8" d="M280.63,661.62c4.5-31,13.27-60,38.5-89.32,18.95-22,39-37.62,66.81-49.65,62.09-26.84,134.28-3.13,178.44,41.22,52.5,52.74,45.47,142.48,34.78,214.58C582.22,892.58,494.61,947.25,382.7,925.72c-33-6.35-73.89,24.75-101.73-9.06-1.38-1.68-6.36-12.22-8.05-15.11-3.54-6-9.48-11.84-11.34-18.1-2.8-9.39-3.1-20.28,5.5-26.22-20-15.88-2-31-3.57-49.39-.56-6.73-7-12.6-7.17-21.33-.38-16.37,12.73-28.09,15.19-43.7C276.14,713.62,277,687,280.63,661.62Z"/><path class="cls-11" d="M528.79,366.09c.14,5.31,5.42,28.58,3.51,31.26-.6.84-3.1,4-5-3.92s-5-38.49-8.08-40.66-8.14-1.92-6.12,14,11.37,35.94,7,38.87c-2.53,1.7-12-27.72-17.15-28.29s-7.34,6.68.34,20,13.61,23.43,11.58,27.35-20.41,4.28-25.35,7.29-.1,9.23,7.49,9.11,15.89,0,21.6,3.56,10.88,18.79,10.88,18.79c12.61,107.49,13,246.3,12.34,310.89l62.51-13c-3.81-173.82-49.33-317-49.33-317a5.84,5.84,0,0,1,.28-.92c1.52-3.74,7.33-21.69,1.25-38.88s.84-35-7-38-2.7,28-4.28,29.11-3.92,1.13-4.62-7.38-1.84-30.12-6.15-32.34S528.65,360.79,528.79,366.09Z"/><path class="cls-12" d="M386.83,829.43c-34.09,13.28-52.67,21.3-69.91,58.18-22.82,48.81,24.39,118.41,24.39,170.68,0,69.75-1,101.67,2,171,66.62,3.17,76.44,27.91,141.55,16.55,60.35-10.53,136.79,53.11,187.75,16.63-13.24-41-22.12-83.2-35.22-124.36-12.87-40.43-34.16-156.77-36.55-199.45-2.52-44.92-3-73.2,1.47-117.12,4.06-40.1,21.43-81,22.29-121.76.45-21.26-8.57-33.15-28.28-38.18-16.42-4.2-43.54,2.46-60.38,2.85-1.42,35.09-10,50.68-8.54,83.67,2.12,47.72-37.8,62.59-75.74,66.47C429.3,816.92,407.18,821.51,386.83,829.43Z"/><path class="cls-11" d="M426.63,842.22c9.85,55.36,84.12,32.7,80.65-19.93C481.51,820.88,437.88,812.41,426.63,842.22Z"/><path class="cls-13" d="M423.36,834.5c1.83,27.7,68.75,20.93,82.36,7.14,1.94-10.38,5.65-19.33,4.06-26.71C484.15,830.51,442.35,807.47,423.36,834.5Z"/><path class="cls-11" d="M493.32,588.52c39.23,14.54,64.95,63.05,64.45,104.89-.16,13.64-2.71,27-3.27,40.55-.62,14.91,3.91,29.42-.15,44.24-5.87,21.37-26.28,37.43-43,50.54-17,13.34-38.68,18.63-60.06,16.48-33.32-3.35-76.58-24.58-94.6-53.83-12.29-20-7.26-44.69-7.48-66.71-.21-21.19-1.27-41.13,3.56-62.06,8.69-37.69,32.26-73.36,72.17-81.9C444.69,576.48,469.88,579.83,493.32,588.52Z"/><ellipse class="cls-11" cx="345.65" cy="721.75" rx="25.52" ry="31.07" transform="translate(-87.34 48.76) rotate(-7.17)"/><ellipse class="cls-11" cx="545.33" cy="718.86" rx="25.52" ry="31.07"/><path class="cls-8" d="M340.41,690c36.75,3.9,69.14-28.58,88.7-77.72a.7.7,0,0,1,1.33.05c14.58,46.74,96.15,71.22,134.78,81C643.66,586,366.05,501,327.54,618.51,321,638.43,326.32,671.58,340.41,690Z"/><path class="cls-3" d="M410.28,759.46c28.25,7.4,61.11,10.91,101.49-5.07a5,5,0,0,1,6.43,6.78c-9.94,21.89-26.25,44.67-53.45,46.62-31.9,2.28-50.24-20.06-60.26-41.29A5,5,0,0,1,410.28,759.46Z"/><path class="cls-9" d="M530,555c-7.6,26.28,1.11,64.41,13.92,89.75,12.14,24,31,47.76,35.46,73.94,13.66,80,101.18,81.68,161.66,45.64,96.84-57.71,64.69-191.74-41.47-242.24C631.17,489.51,565.6,454.34,530,555Z"/><path class="cls-10" d="M720.08,400.15a60.67,60.67,0,0,0,12.53,14.14,62.44,62.44,0,0,0,29.35,13l.26,0h0c.15-.4.3-.81.45-1.24A144.64,144.64,0,0,0,769.31,384c0-.45,0-.89,0-1.31h0l-.26-.05A62.5,62.5,0,0,0,737.08,386c-6,2.32-13.54,9-17,14.19L711,398.7c-1.61-5.59-6.76-14.65-11.8-18.72a62.38,62.38,0,0,0-29.35-13l-.26-.05h0c-.15.4-.3.81-.45,1.24a144.78,144.78,0,0,0-6.64,42.12c0,.45,0,.89,0,1.32h0l.26,0a62.44,62.44,0,0,0,31.94-3.34A60.94,60.94,0,0,0,711,398.7Z"/><circle class="cls-10" cx="715.76" cy="397.12" r="10.94" transform="translate(65.31 894.04) rotate(-66.4)"/><path class="cls-8" d="M713.43,582.92c-1.49,1.32-9.42,10.51-13.42,6.63-2.27-2.21-11.82-17.71-14.31-19.62,1.13,2.24,7.2,19.22,8.11,21.56.54,1.37,2,3.9,1.36,5.3-.48,1.06-3.39,2.33-4.37,3-3.26,2.16-4.27,2.71-7.61,4.74-6.92,4.21-14,8.19-21.15,12a333.36,333.36,0,0,1-39.26,18.09c-6.72-12-23.46-38.36-26.32-42.89,4.44,15.86,7.32,32.8,11.54,49-9.07,5.69-75.6,28-80.14,15.76-43-115.71,12.22-222.7,102.47-246.69,116.15-30.88,216.45,23.2,231,156.37C865.78,607.06,835,679.3,788.38,710c8.72-59.44,15.86-70-21.19-120.74C738.4,549.9,720.19,578.05,713.43,582.92Z"/><ellipse class="cls-9" cx="764.75" cy="591.62" rx="39.13" ry="31.61" transform="translate(-50.76 1111.05) rotate(-70.22)"/><path class="cls-3" d="M625.3,731c22.64-5.08,47.93-14.29,74.83-38.73,2.83-2.56,6.76-1.2,6.2,2.14-2.92,17.63-10.42,38-30.36,48.81-23.38,12.61-41.69,4.58-53.56-5.65C620.25,735.67,622,731.71,625.3,731Z"/><path class="cls-9" d="M775.14,698.64c-5.23,29.72-3,56.78,4.51,85.05-22.16,13.35-59.1,23.1-84.66,21.87,1.43-14.91,6.43-42.33,9.7-58,24.25,14.71,45.72-6.22,50.69-29.16"/><path class="cls-14" d="M911.33,818.3c-27.92,33.22-36.36,85-43.5,135.93-10.54,75.32-18.2,113.65-29.83,189.46-6.44,42-33.26,109.26,8.56,133,47.29,26.86,125.86,8.36,176.72,10.3,33.17,1.27,120-4.82,154.2-10.29.11-137.92-17.62-224.5-23.66-368.16-1.83-43.59-15.59-101.7-60.89-103.31C1067.79,804.37,958.91,790.17,911.33,818.3Z"/><ellipse class="cls-15" cx="1157.23" cy="694.63" rx="29.65" ry="24.71" transform="translate(303.12 1739.7) rotate(-81.72)"/><path class="cls-15" d="M861.72,638.06c-20.49,1.24-15.45,42.75-.65,43.49"/><path class="cls-15" d="M1154,657.9c-1.66-38.57-23.75-81.79-47.14-107.73-36.64-40.62-113.53-56.48-161.65-27.49-54.47,32.82-81.79,73-88.12,132-7.3,68.15,50.95,133.32,118.2,143.11,44.56,6.49,73.71-2,108.23-24.24,32-20.6,52.47-45.29,66-83C1153.2,680.42,1154.51,669.36,1154,657.9Z"/><path class="cls-16" d="M1157.53,567.46c-21.65-39.24-63.42-74-104-82C994,473.7,917.06,489.3,884.43,544.74c-15.64,26.58-25.55,61.37-23.55,94.71,21.3-.64,39.77-17.69,58.78-35.8,15.56-14.83,29.07-32.55,41.42-49.87,1.52,11.36,4,22.07,8.84,32.5a59.2,59.2,0,0,0,15.33,20.5c6.08,5,13.24,8,19.59,12.38-4.3-2.56-6.8-9-8.8-13.42a69.63,69.63,0,0,1-5.93-19.11c16.07,15.29,34.18,27.44,54.75,40.06,24,14.77,91.25,49.06,120.41,37.83C1172.61,637.91,1173.47,596.36,1157.53,567.46ZM961.85,552.71l.12.17-.56.45C961.56,553.12,961.71,552.92,961.85,552.71Z"/><path class="cls-3" d="M934.58,711.54c27.77,12.45,60.94,21.7,105.18,12.2a5.24,5.24,0,0,1,5.45,8.07c-14,20.8-34.64,41.41-62.94,38.75-33.17-3.13-48.19-29.24-54.85-52.78A5.24,5.24,0,0,1,934.58,711.54Z"/><path class="cls-15" d="M978.75,794.38c0,12.37-.37,16.25,10.87,20.42,7.63,2.83,17.65,3.48,25.56,3,21.55-1.42,24.3-10.32,23.21-30.88-8.88,4.22-19.44,3.15-29.19,3.15Z"/><path class="cls-9" d="M1155.66,848a8.81,8.81,0,0,1-.24,2.11c-1.92,8.32-1.13,10.12-11.16,8.91-3.53-.42-6.16-2.38-9.35-.68-2.14,1.13-4.46,4.36-6.74,6-5.56,4-15.11,4.61-11.45-2.89,2.86-5.88,11.38-12.19,10.93-14.73-4.66-2.46-13.88,18-24.29,18.23-14.36.32,14.52-24.78,12.27-29.54-2.11-3.21-26.3,25.07-26.92,10.4-.39-9.27,20.63-20,15.62-25.43-4.92-1.34-16.56,14.15-19.64,6.49-1.87-4.66,2.78-9.19,7.16-15.31,5.11-7.14,6.67-14.38,10-15,16.7,3.13,28.29,6.29,41.84,20.72C1149.54,823.56,1155.4,836.61,1155.66,848Z"/><path class="cls-14" d="M1146.36,863.18c9.07,37.75,29.44,70.58,34,110.53,4.22,36.9-43,44.18-71.56,55.31,7.5-38.82-3.92-78.31,9.65-116.82C1124,896.61,1135,883.41,1146.36,863.18Z"/><g class="cls-17"><polygon class="cls-3" points="1033.89 894.73 1037.28 889.49 1004.58 864.76 1001.19 870 1033.89 894.73"/><polygon class="cls-3" points="1010.47 856.95 1007.08 862.19 1039.79 886.92 1043.17 881.68 1010.47 856.95"/><polygon class="cls-3" points="1016.36 849.15 1012.98 854.38 1045.68 879.11 1049.07 873.88 1016.36 849.15"/><polygon class="cls-3" points="1022.26 841.34 1018.87 846.58 1051.57 871.3 1054.96 866.07 1022.26 841.34"/><polygon class="cls-3" points="1057.46 863.5 1060.85 858.26 1028.15 833.53 1024.76 838.77 1057.46 863.5"/></g><path class="cls-10" d="M926.15,1044.76c28.24-78.82,91.61-160.59,109.19-180.73,14.91-17.07,34.5-9.92,12.5,10.3-47.81,43.93-112.56,172.47-115,175.89C930,1054.4,924.43,1051.49,926.15,1044.76Z"/><path class="cls-15" d="M1137.48,969c27.22,7.73,47.43,20.44,34.43,44.27-18.86,34.57-67.66,15.39-94.59,3.41-10.28-4.58-27.13-14.07-37.82-22.79-9-7.33-14.08-14.85-23.7-21.76-9.88-7.09-22.21-17.39-27.61-29.28-4.44-9.78-6.23-25.49,3-32.51,12.65-9.67,28.47,2.19,33.17,12.65,8.69,19.31,10.86,22.83,33.29,30.69C1070.28,958.14,1108,960.65,1137.48,969Z"/><path class="cls-15" d="M996.17,923.94c-5.9-5.71-15.87-14.72-11.24-20.26,4.12-4.93,12.79,4.53,18.75,10.3s15.61,14,11.56,19C1010.69,938.65,1002.07,929.65,996.17,923.94Z"/><path class="cls-15" d="M1011.08,904.14c-6.32-6.12-14.34-11.95-17.3-7.44-3.13,4.78,4.56,12.61,9.39,17.29s15.5,15.89,19.52,12C1026.49,922.27,1017.4,910.25,1011.08,904.14Z"/><path class="cls-15" d="M990.24,934.57c-4-3.85-9.9-9.79-13.54-5.06-2.51,3.28,1.25,9.06,6.21,13.86s25,24.25,19.81,16.3C999.49,954.69,994.22,938.43,990.24,934.57Z"/><path class="cls-15" d="M995.44,922.76c-5.22-5.06-13.1-13-17.07-7.32-3.49,5,4.58,12.53,9.07,16.89s12.47,12.33,16.63,8C1008.82,935.41,1000.66,927.81,995.44,922.76Z"/><path class="cls-11" d="M242.73,1230.11c2.14-4.86,7.25-28.17,10.12-29.78.9-.51,4.5-2.28,2.89,5.69s-11.88,36.94-10,40.23,6.56,5.19,11.52-10.1,5-37.36,10.17-38.16c3-.46-.94,30.19,3.51,32.9s9.48-2.93,8.21-18.27-2.36-27,1.14-29.68,20.29,4.8,26,4.19,4-8.32-2.9-11.44-14.39-6.72-18-12.4-1.86-21.64-1.86-21.64c13.07-39.12,28.14-77.58,44-115.66q11.66-28,23.92-55.79c6.93-15.74,14.73-31.34-2.09-44-8.33-6.27-21.62-14.17-32.61-10.4s-13.21,24.74-16.58,35Q292.63,973.77,286,997q-11.22,39-20.06,78.71c-3.92,17.67-7.5,35.43-10.57,53.27-.71,4.14-.34,15.73-3,19.13a5.61,5.61,0,0,1-.64.71c-3,2.74-15.86,16.52-17.68,34.66s-15.65,31.35-9.83,37.36,14.35-24.17,16.26-24.52,4,.64,1,8.64-11.13,28-8.18,31.89S240.6,1235,242.73,1230.11Z"/><path class="cls-18" d="M324.12,873.29c-9.94,22.08-30.37,38.13-15.29,61,18.31,27.84,31.8,33.42,33.92,68.56,26.22-20.59,61.59-69.5,45.77-105.11C378.39,875,333.09,857.92,324.12,873.29Z"/><path class="cls-7" d="M998.39,304.32a60.18,60.18,0,0,0-14.12-1.7,59.81,59.81,0,1,0,14.12,1.7Z"/><path class="cls-19" d="M1063.32,370.11l13.27-9.85a.52.52,0,0,0,.21-.44.5.5,0,0,0-.23-.42l-13.75-9.19a17.44,17.44,0,0,1-6.07-20.62l6.57-15.17a.53.53,0,0,0,0-.49.56.56,0,0,0-.41-.25l-16.5-1.08a17.42,17.42,0,0,1-15.57-14.82l-1.89-16.42a.53.53,0,0,0-.76-.41l-14.82,7.31a17.44,17.44,0,0,1-20.9-5.05l-9.85-13.28a.51.51,0,0,0-.44-.21.59.59,0,0,0-.26.07.61.61,0,0,0-.16.16l-9.21,13.78a15.9,15.9,0,0,1-4.89,4.61A17.4,17.4,0,0,1,952,289.8l-15.24-6.6a.51.51,0,0,0-.48,0,.51.51,0,0,0-.25.41l-1.09,16.56a17.4,17.4,0,0,1-8.44,13.26,15.45,15.45,0,0,1-6.33,2.24l-16.47,1.9a.49.49,0,0,0-.21.08.41.41,0,0,0-.19.2.51.51,0,0,0,0,.48l7.31,14.82a17.44,17.44,0,0,1-5.05,20.9l-13.28,9.85a.54.54,0,0,0-.21.44.5.5,0,0,0,.23.42L906,374a17.45,17.45,0,0,1,6.08,20.6l-6.58,15.19a.51.51,0,0,0,0,.48.55.55,0,0,0,.42.25l16.51,1.08A17.43,17.43,0,0,1,938,426.38l1.9,16.45a.5.5,0,0,0,.27.4.51.51,0,0,0,.48,0l14.83-7.31A17.41,17.41,0,0,1,976.41,441l9.85,13.28a.56.56,0,0,0,.44.21.5.5,0,0,0,.26-.08.57.57,0,0,0,.16-.15l9.19-13.75a15.9,15.9,0,0,1,4.92-4.65,17.39,17.39,0,0,1,15.7-1.42L1032.1,441a.52.52,0,0,0,.73-.45l1.09-16.49a17.39,17.39,0,0,1,8.44-13.32,15.75,15.75,0,0,1,6.38-2.26l16.42-1.89a.57.57,0,0,0,.22-.07.58.58,0,0,0,.18-.2.51.51,0,0,0,0-.48L1058.26,391A17.42,17.42,0,0,1,1063.32,370.11ZM1046.26,377a63.58,63.58,0,0,1-61.67,48.7,63.9,63.9,0,0,1-15.11-1.82A63.63,63.63,0,1,1,1046.26,377Z"/><path class="cls-3" d="M942.59,362.2c24.06,1.6,51.26-.66,81.53-19.9a4.15,4.15,0,0,1,6.26,4.5c-4.66,19.3-14.35,40.3-36.11,46.11-25.52,6.81-43.86-8.45-55.29-24.11A4.15,4.15,0,0,1,942.59,362.2Z"/><path class="cls-10" d="M605.55,824.78c-19.17,51.12-17.66,163.5-19.17,225.67-1.49,61.22-8,122.47-9.59,184.1-1.4,55.42-4.15,75.25,59.36,72.7,15.37-.62,43.3,2.61,55.11-10.24,33.3-36.23-2.92-152.31-8.57-191.41C675.6,1056.51,693,816.8,605.55,824.78Z"/></g><circle class="cls-20" cx="748.29" cy="861.15" r="13.69"/><circle class="cls-20" cx="742.53" cy="1097.99" r="13.69"/><circle class="cls-20" cx="657.89" cy="829.47" r="13.69"/><circle class="cls-20" cx="661.9" cy="910.1" r="13.69"/><circle class="cls-20" cx="607.19" cy="984.97" r="13.69"/><circle class="cls-20" cx="800.13" cy="956.89" r="13.69"/><circle class="cls-20" cx="804.96" cy="1039.98" r="13.69"/><circle class="cls-20" cx="820.28" cy="792.75" r="13.69"/><circle class="cls-20" cx="857.72" cy="856.1" r="13.69"/><circle class="cls-20" cx="699.34" cy="990.73" r="13.69"/><circle class="cls-20" cx="635.99" cy="1080.71" r="13.69"/><path class="cls-8" d="M420,721.44c.44,5.56-6.07,2.28-14.45,2.95s-15.46,5-15.9-.53,6-10.62,14.36-11.29S419.53,715.87,420,721.44Z"/><path class="cls-8" d="M521.74,720.93c-.22,5.57-5.51.8-13.88.54s-16.66,4.06-16.43-1.51,7.2-9.86,15.57-9.59S522,715.37,521.74,720.93Z"/><path class="cls-8" d="M615.41,679.39c2.89,5.09-4.51,3.91-12.18,8.51s-12.7,13.26-15.6,8.17,1-13,8.64-17.55S612.51,674.3,615.41,679.39Z"/><path class="cls-8" d="M700.49,647.49c1.71,5.6-5.25,2.81-13.76,5.6s-15.31,10.1-17,4.5,3.79-12.39,12.3-15.18S698.78,641.9,700.49,647.49Z"/><path class="cls-8" d="M1065.5,684.4c-.48,4.43-6.46.26-16.21-.53s-19.58,2.1-19.11-2.33,8.78-7.38,18.53-6.59S1066,680,1065.5,684.4Z"/><path class="cls-8" d="M953.5,668.16c-.48,4.43-6.46.26-16.21-.53s-19.58,2.1-19.1-2.33,8.77-7.38,18.52-6.59S954,663.73,953.5,668.16Z"/><path class="cls-21" d="M166.1,873.91l-16.53,2.38a59.8,59.8,0,0,0,.48-22.63c-1.42-7.2-4.41-8.86-7.6-8.23-3.6.7-4.42,3.64-5.86,16.42-1.49,13.12-6.75,19-18.17,21.2-13.07,2.56-22.31-6.42-25.72-23.8a90.19,90.19,0,0,1-1.84-19.19l15.82-2.68a80.87,80.87,0,0,0,1.09,17.52c1.41,7.2,3.79,10.05,6.67,9.48,3.29-.64,4.18-2.63,5.31-14.29,1.52-16.22,6.68-21,16.76-22.94,14.2-2.79,25.32,5.39,28.56,22C166.93,858.57,167.19,867.5,166.1,873.91Z"/><path class="cls-21" d="M122.06,824.68c-22.8,1.61-37.34-13.76-38.75-33.84-1.45-20.5,10.91-37.56,33.92-39.18s37.43,13.65,38.86,33.84C157.49,805.37,145.18,823.06,122.06,824.68Zm-3.62-54.29c-11.19.78-20,7.93-19.24,19.22s10.34,16.93,21.63,16.14,20.16-7.84,19.36-19.13S129.53,769.6,118.44,770.39Z"/><path class="cls-21" d="M81.3,743.1l.45-12.58L121.4,698.9l-38.46-1.38.62-17.08L154.39,683,154,695.15l-40.92,32,39.71,1.43-.61,17.08Z"/><path class="cls-21" d="M148.91,612.06l15,6.73-1.12,7.36c-.83,5.49-2.26,7.92-7.35,10.76l-15.76,8.85c-2.55,1.42-3,2.41-3.4,4.89l-.74,4.88,22.29,3.37L155.07,677,85,666.43,89.62,636c2.59-17.1,10.25-25.7,27.56-23.08,9.44,1.43,16.28,6.61,18.93,15.07l8.72-5.05c2.08-1.16,2.84-2.64,3.29-5.65Zm-34.16,19c-6.22-.94-9.07,2.45-10.06,9l-1.6,10.57,17.1,2.59,1.65-10.88C122.75,636.3,121.17,632,114.75,631.06Z"/><path class="cls-21" d="M96.86,596.79,101,578.93,170,595l-4.17,17.86Z"/><path class="cls-21" d="M167.86,590.5l-15.7-5.66a59.9,59.9,0,0,0,11.06-19.75c2.14-7,.28-9.89-2.83-10.83-3.51-1.07-5.61,1.14-12.89,11.74-7.48,10.87-14.87,13.55-26,10.16-12.73-3.88-16.67-16.14-11.5-33.09a90.11,90.11,0,0,1,7.39-17.8l15.22,5.07a80.82,80.82,0,0,0-7.27,16c-2.14,7-1.38,10.64,1.42,11.5,3.21,1,4.93-.36,11.41-10.12,9-13.59,15.75-15.36,25.58-12.37,13.84,4.22,19.8,16.66,14.88,32.81C175.81,577.36,171.84,585.36,167.86,590.5Z"/><path class="cls-21" d="M130,490.22l6.79-16L213,475.87l-7.65,18.06-12.54-.76-10.31,24.32,9.19,8.68-7.93,18.73Zm46,2.18L155.14,491l-.4,1L170.18,506Z"/><path class="cls-21" d="M211.24,474.72l-14.16-8.85a59.89,59.89,0,0,0,15-17c3.57-6.41,2.36-9.61-.48-11.19-3.21-1.79-5.73-.07-15.09,8.76-9.61,9-17.4,10.1-27.56,4.43-11.63-6.48-12.89-19.3-4.26-34.78a89.12,89.12,0,0,1,11-15.84l13.8,8.18A80.77,80.77,0,0,0,179,422.53c-3.57,6.41-3.6,10.11-1,11.54,2.94,1.64,4.91.69,13.3-7.47,11.63-11.4,18.64-11.7,27.62-6.69,12.63,7,15.83,20.47,7.61,35.22C221.78,463.55,216.21,470.53,211.24,474.72Z"/><path class="cls-21" d="M193.77,370.11l16.85-22.74c9.8-13.23,19-17.67,30.08-9.43a14.22,14.22,0,0,1,5.3,16.45l.16.13a17.19,17.19,0,0,1,22-1.33c12.56,9.31,11,20.7.61,34.77l-18,24.34Zm38.86-5.78c2.88-3.88,2.79-7.46-.58-10-3.87-2.87-6.59-1-9,2.32l-5.87,7.92,9.86,7.3Zm23.29,14.9c4.24-5.73,3.68-9,.14-11.64s-7.08-1.72-11.7,4.51l-6.06,8.17,10.87,8.05Z"/><path class="cls-21" d="M318.11,306.6l8.67,14-5,5.47c-3.76,4.09-6.31,5.31-12.11,4.81l-18-1.48c-2.9-.26-3.84.3-5.55,2.16l-3.34,3.62,16.59,15.27-12.43,13.5-52.15-48,20.88-22.68c11.72-12.73,22.88-15.57,35.77-3.71,7,6.47,9.8,14.59,7.26,23.08l10,.7c2.39.2,3.84-.6,5.9-2.84Zm-38.95-3.36c-4.63-4.26-8.88-3.05-13.36,1.81l-7.24,7.87,12.73,11.72,7.45-8.1C282.86,312.06,283.94,307.64,279.16,303.24Z"/><path class="cls-21" d="M283.46,264.84l13.44-12.5,48.26,51.92-13.44,12.49Z"/><path class="cls-21" d="M339.78,287.41,305,244.75l14.21-11.59,30.69,37.61c3.51,4.31,5.49,3.91,9.47.67l17.31-14.12,7,14.72L361,290.53C353.44,296.69,346.34,295.45,339.78,287.41Z"/><path class="cls-21" d="M379.1,255.69,348,210.24l15.15-10.35L390.58,240c3.13,4.59,5.14,4.36,9.38,1.46l18.44-12.6,5.73,15.26L400,260.6C391.92,266.1,385,264.26,379.1,255.69Z"/><path class="cls-21" d="M418.19,165.73l15.33-8.22,58.33,49.15-17.28,9.26-9.29-8.47L442,219.93l1.72,12.52-17.93,9.61Zm34.44,30.54-15.32-14.15-.92.5,3.21,20.64Z"/><path class="cls-21" d="M467.25,140.46,479,135.89l44.75,23.85-14-35.85,15.92-6.2,25.75,66-11.33,4.42-45.6-24.87,14.44,37L493,206.49Z"/><path class="cls-21" d="M559.41,124.54l-19.85,5.29-4.08-15.3,59.36-15.82.33,16.3-17.73,4.72,14.17,53.19-18,4.8Z"/><path class="cls-21" d="M603.29,97.25l51.11-8.41-1.26,16.25L624,109.89l2,12.31,26.18-4.31,1.68,15.35-25.35,4.17,1.84,11.17,33.1-5.45-1.25,16.25-47.39,7.8Z"/><path class="cls-21" d="M666.83,156l-.34-16.68a60.13,60.13,0,0,0,22.41,3.25c7.32-.51,9.34-3.28,9.1-6.53-.25-3.66-3.07-4.83-15.58-7.83-12.83-3.09-18-9-18.8-20.65-.93-13.28,9.12-21.35,26.8-22.59a90.24,90.24,0,0,1,19.27.53l.7,16a81.38,81.38,0,0,0-17.52-1.07c-7.32.51-10.44,2.52-10.23,5.45.23,3.35,2.1,4.48,13.53,7,15.91,3.51,20,9.21,20.71,19.46,1,14.44-8.47,24.46-25.31,25.65C682,158.74,673.06,157.9,666.83,156Z"/><path class="cls-21" d="M743.53,150.1c0,10-5.19,18-14.5,24.16l-6.73-6.17c5.44-3.68,8.26-7.68,9.2-11.45a9.7,9.7,0,0,1-9.47-9.83c0-6.08,5.11-10,10.35-10C738.15,136.8,743.51,141,743.53,150.1Z"/><path class="cls-21" d="M772.8,85.34,824,90.24l-5.37,15.39-29.12-2.78-1.41,14.82,25.67,2.45L811.6,135.5l-24.94-2.39-2.35,24.53-18.26-1.75Z"/><path class="cls-21" d="M824.21,133.5l8.57-42.12,18,3.66-8.31,40.89c-1.82,8.94,1.32,15,10.06,16.81,8.32,1.69,13.47-2.61,15.31-11.65l8.32-40.89,18,3.66L885.54,146c-3.91,19.21-16.87,26.1-36.39,22.13S820.28,152.82,824.21,133.5Z"/><path class="cls-21" d="M919.3,128.06l-19.55-6.33,4.88-15.06,58.44,18.91-8.56,13.87-17.45-5.65-16.95,52.37-17.75-5.75Z"/><path class="cls-21" d="M954.09,168.1l17.65-39.19,16.73,7.54-17.14,38c-3.74,8.32-2,15,6.11,18.62,7.74,3.48,13.72.43,17.5-8l17.14-38,16.73,7.53-17.66,39.19c-8,17.88-22.2,21.74-40.36,13.56S946,186.07,954.09,168.1Z"/><path class="cls-21" d="M1067.06,240.63,1055.19,252l-6.4-3.81c-4.77-2.84-6.49-5.08-7.2-10.86l-2.27-17.94c-.35-2.89-1.09-3.69-3.26-5l-4.23-2.52-11.52,19.38-15.77-9.37L1040.75,161l26.49,15.74c14.87,8.84,20,19.17,11,34.22-4.88,8.2-12.25,12.6-21.08,11.87l1.39,10c.3,2.37,1.38,3.62,4,5.18Zm-4.75-38.79c3.21-5.41,1.15-9.32-4.53-12.69l-9.19-5.46-8.84,14.86,9.47,5.63C1054.44,207.28,1059,207.43,1062.31,201.84Z"/><path class="cls-21" d="M1078,224c13.87-18.17,35-18.91,51-6.69,16.34,12.47,21,33,7,51.35s-35,19.05-51.08,6.77C1069.1,263.36,1064,242.43,1078,224Zm43.12,33.19c6.81-8.92,7.3-20.28-1.7-27.15s-19.53-3.44-26.41,5.56-7.45,20.29,1.55,27.17S1114.41,266,1121.16,257.21Z"/><path class="cls-21" d="M1117.17,296.21l12.11-11.49A59.85,59.85,0,0,0,1142,303.47c5.31,5.06,8.71,4.68,11,2.33,2.53-2.66,1.5-5.52-4.7-16.79-6.37-11.56-5.45-19.37,2.58-27.8,9.18-9.64,21.91-7.65,34.74,4.57a90.11,90.11,0,0,1,12.59,14.6l-11.37,11.32a80.86,80.86,0,0,0-11-13.67c-5.31-5.06-8.89-6-10.92-3.89-2.31,2.43-1.89,4.57,3.92,14.74,8.13,14.11,6.67,21-.42,28.41-10,10.47-23.78,10.22-36-1.42C1125.35,309.21,1120,302.08,1117.17,296.21Z"/><path class="cls-21" d="M1222.84,305.44l17.8,22c10.36,12.79,12.36,22.77,1.61,31.47a14.22,14.22,0,0,1-17.25,1l-.16.13a17.2,17.2,0,0,1-4.22,21.62c-12.14,9.83-22.79,5.5-33.81-8.11L1167.75,350Zm-24.36,57.89c4.48,5.54,7.81,5.82,11.23,3.05s3.43-6.42-1.45-12.45l-6.39-7.91-10.52,8.51Zm20.24-18.81c3,3.75,6.53,4.56,9.79,1.92,3.74-3,2.58-6.14,0-9.31l-6.2-7.66-9.54,7.72Z"/><path class="cls-21" d="M1253.18,441.65l-15.69,4.89-4-6.25c-3-4.67-3.56-7.44-1.62-12.93l5.94-17.07c1-2.75.67-3.8-.7-5.92l-2.67-4.14-18.93,12.24-10-15.41,59.53-38.46,16.72,25.89c9.39,14.53,9.34,26-5.37,35.54-8,5.18-16.57,5.84-24.15,1.25l-3.19,9.55c-.79,2.26-.37,3.86,1.27,6.42Zm13-36.86c5.29-3.41,5.18-7.83,1.59-13.38l-5.8-9-14.53,9.39,6,9.24C1256.72,406.17,1260.73,408.32,1266.18,404.79Z"/><path class="cls-21" d="M1302.34,418.68l8.71,16.15-62.36,33.66L1240,452.35Z"/><path class="cls-21" d="M1266.37,467.54l50.05-22.92,7.64,16.68-44.14,20.22c-5.06,2.31-5.17,4.33-3,9l9.3,20.31-16,3.06L1258,487.29C1253.93,478.42,1256.93,471.86,1266.37,467.54Z"/><path class="cls-21" d="M1287.12,513.52l51.81-18.58,6.2,17.27-45.7,16.39c-5.22,1.87-5.51,3.87-3.78,8.7l7.54,21L1287,560l-9.88-27.54C1273.81,523.3,1277.35,517,1287.12,513.52Z"/><path class="cls-21" d="M1364.31,574.08l4.08,16.92-62.3,44L1301.5,616l10.53-6.86-6.19-25.68-12.55-1.51-4.76-19.77Zm-38.26,25.62,17.57-11.25-.25-1-20.79-2.11Z"/><path class="cls-21" d="M1376.34,627.89l1.48,12.49L1343.5,677.7l38.2-4.53,2,17-70.37,8.34-1.43-12.08,35.52-37.88L1308,653.19l-2-17Z"/><path class="cls-21" d="M1368.68,721l-.18-20.55,15.83-.14.55,61.44L1369,758l-.16-18.35-55,.49-.16-18.66Z"/><path class="cls-21" d="M1384.2,770.23l-4.56,51.6-15.43-5.26,2.6-29.45-12.43-1.1-2.33,26.42-15.28-2.19,2.26-25.59-11.28-1-3,33.43-15.43-5.26,4.22-47.84Z"/><path class="cls-21" d="M1311.45,817.15l16.24,3.86a59.74,59.74,0,0,0-8.76,20.87c-1.34,7.22.84,9.86,4,10.45,3.6.66,5.44-1.77,11.48-13.12,6.2-11.65,13.25-15.15,24.69-13,13.09,2.42,18.38,14.16,15.17,31.58a90.2,90.2,0,0,1-5.35,18.52L1353.27,873a81.43,81.43,0,0,0,5.43-16.7c1.33-7.21.17-10.73-2.72-11.26-3.29-.61-4.86.91-10.19,11.33-7.38,14.52-13.92,17-24,15.18-14.23-2.63-21.56-14.33-18.49-30.92C1305,831.1,1308.08,822.71,1311.45,817.15Z"/><path class="cls-21" d="M1346.87,898.11l-2.58,9.62-5.72-.39c-1.92-.14-3.46-.3-5.06-.47l-.06.23c1.48.59,2.88,1.28,4.63,2.07l5.18,2.4-2.58,9.62-16.89-4.53,1.57-5.84,10.69,2.87.09-.36c-2.48-1.36-5.52-3-7.23-4l-2.24-1.3,1.47-5.49h2.6c2,0,5.42.06,8.25.12l.1-.35-10.69-2.86,1.58-5.91Zm-1-15.66,1.34-5,4.9,1.32-4.56,17-4.6-2.44,1.25-4.66-12-3.21,1.66-6.2Z"/><polygon class="cls-22" points="765.42 416.68 765.54 416.64 765.63 416.57 765.68 416.46 765.85 415.72 766.28 413.74 766.28 413.73 766.7 411.7 767.1 409.61 767.1 409.61 767.47 407.49 767.83 405.33 767.83 405.33 768.16 403.17 768.46 401.03 768.46 401.03 768.72 398.93 768.95 396.86 769.15 394.84 769.15 394.83 769.31 392.87 769.44 390.95 769.44 390.95 769.53 389.1 769.53 389.09 769.59 387.31 769.59 387.31 769.61 385.6 769.6 383.98 769.6 383.97 769.56 382.66 769.55 382.62 769.51 382.51 769.43 382.43 769.32 382.39 769.05 382.35 769.05 382.34 766.57 382 766.56 382 764.07 381.76 764.05 381.76 761.55 381.63 761.54 381.63 759.04 381.58 759.03 381.58 756.52 381.65 756.51 381.65 754.02 381.81 754.01 381.81 751.52 382.07 751.51 382.07 749.04 382.43 749.03 382.44 746.58 382.89 746.56 382.89 744.13 383.44 744.12 383.44 741.71 384.09 741.7 384.1 739.33 384.85 739.32 384.85 736.98 385.69 736.96 385.7 735.81 386.18 735.8 386.19 734.63 386.76 734.62 386.77 733.42 387.44 733.42 387.44 732.21 388.18 732.2 388.19 730.99 388.99 730.99 389 729.79 389.86 729.78 389.87 728.6 390.78 727.43 391.75 727.42 391.75 726.29 392.74 726.28 392.75 726.14 392.87 726.09 392.73 726.08 392.7 725.65 391.81 725.64 391.79 725.13 390.94 725.12 390.92 724.54 390.12 724.52 390.1 723.87 389.36 723.85 389.33 723.13 388.65 723.12 388.63 722.34 388.02 722.32 388 721.48 387.46 721.46 387.44 720.56 386.97 720.54 386.96 719.6 386.56 719.57 386.56 718.58 386.25 718.55 386.25 717.52 386.03 717.49 386.02 716.45 385.91 716.43 385.91 715.39 385.9 715.36 385.9 714.34 385.98 714.32 385.99 713.32 386.16 713.3 386.16 712.33 386.43 712.31 386.44 711.38 386.79 711.35 386.79 710.46 387.22 710.44 387.24 709.59 387.75 709.57 387.76 708.77 388.34 708.75 388.35 708 389 707.99 389.02 707.3 389.74 707.29 389.76 707.28 389.76 706.97 389.24 706.23 388.01 706.23 388 705.44 386.8 705.44 386.79 704.63 385.62 704.63 385.62 703.79 384.49 703.79 384.47 702.93 383.39 702.92 383.39 702.72 383.15 702.66 383.16 702.42 383.23 702.39 383.25 702.69 383.59 703.54 384.67 704.38 385.8 705.19 386.97 705.97 388.17 706.71 389.4 707.24 390.32 707.53 389.96 708.21 389.24 708.95 388.59 709.75 388.01 710.6 387.51 711.49 387.08 712.41 386.73 713.38 386.47 714.37 386.29 715.38 386.21 716.42 386.23 717.46 386.34 718.49 386.55 719.48 386.86 720.42 387.25 721.31 387.71 722.15 388.26 722.92 388.88 723.64 389.56 724.29 390.3 724.87 391.1 725.37 391.95 725.8 392.84 726.01 393.42 726.5 392.98 727.63 391.99 728.78 391.02 729.97 390.11 731.17 389.25 732.37 388.44 733.58 387.71 734.77 387.05 735.94 386.47 737.08 385.99 739.42 385.14 741.79 384.4 744.2 383.75 746.63 383.19 749.08 382.74 751.55 382.38 754.04 382.12 756.53 381.96 759.04 381.9 761.54 381.94 764.04 382.08 766.53 382.31 769 382.65 769.25 382.69 769.29 383.98 769.3 385.6 769.28 387.31 769.22 389.08 769.13 390.93 769 392.85 768.84 394.81 768.64 396.83 768.41 398.89 768.14 400.98 767.85 403.12 767.52 405.28 767.17 407.43 766.79 409.55 766.39 411.64 765.98 413.67 765.55 415.65 765.38 416.35 764.48 415.93 761.08 414.45 757.63 413.06 754.15 411.75 750.63 410.51 747.07 409.34 743.47 408.26 739.84 407.25 736.16 406.32 732.45 405.47 728.71 404.7 724.93 404.01 721.11 403.39 717.27 402.85 713.38 402.39 709.47 402.01 705.53 401.7 701.56 401.48 697.56 401.33 693.53 401.26 689.48 401.27 685.4 401.37 681.29 401.53 677.16 401.78 673.01 402.11 668.83 402.51 664.63 402.99 662.65 403.26 662.65 403.28 662.63 403.57 662.68 403.57 664.66 403.3 668.86 402.82 673.04 402.42 677.18 402.09 681.31 401.84 685.41 401.68 689.49 401.59 693.53 401.57 697.55 401.64 701.54 401.79 705.51 402.02 709.44 402.32 713.35 402.7 717.22 403.17 721.06 403.7 724.87 404.32 728.64 405.01 732.38 405.78 736.08 406.63 739.75 407.56 743.39 408.56 746.98 409.64 750.53 410.81 754.05 412.05 757.52 413.35 760.96 414.75 764.35 416.21 765.28 416.65 765.31 416.67 765.42 416.68"/><path class="cls-23" d="M581.71,1140.84l.3-.25.24-3.63.7-10.83.69-10.81h0l.65-10.81.61-10.81.56-10.81.48-10.8.41-10.81h0l.31-10.8.07-3.15.07-3.23.07-3.31.06-3.38.06-3.46.06-3.52.06-3.58,0-3.65.06-3.71,0-3.77.06-3.81.07-3.87.06-3.91.07-4,.07-4,.07-4,.09-4.06.09-4.1.09-4.13.1-4.15.11-4.18.13-4.19.12-4.2.14-4.23.15-4.22.16-4.23.17-4.24.19-4.24.2-4.24.22-4.22.22-4.23.25-4.2.25-4.19.28-4.17.3-4.16.31-4.13.33-4.1.35-4.06.37-4,.38-4,.42-4,.43-3.91.46-3.87.48-3.82.5-3.76.53-3.71.55-3.65.57-3.58.61-3.53.63-3.45.66-3.39.69-3.3.72-3.24.75-3.14.25-.95v-.05l.23-3,.33-3.94.36-4,.38-4.11.41-4.2.45-4,.54-4,.6-4,.67-4,.74-4,.79-4,.85-4,.88-4.05.92-4,.95-4.05,1-4,1-4,0-.06-.18-.46h0l-.11.45-1,4.06-1,4.05-1,4-.92,4.05-.89,4-.84,4-.79,4-.74,4-.68,4-.6,4-.54,4-.45,4-.41,4.21-.39,4.1-.35,4-.33,4-.23,3-.24,1-.76,3.15-.71,3.24-.69,3.31-.66,3.39-.64,3.46-.6,3.52-.58,3.59-.56,3.65-.52,3.71-.5,3.77-.49,3.83-.45,3.87-.43,3.91-.42,4-.39,4-.36,4-.36,4.06-.32,4.1-.31,4.13-.3,4.16-.28,4.17-.25,4.19-.25,4.21-.23,4.22-.21,4.23-.2,4.23-.19,4.24-.17,4.24-.16,4.24-.15,4.23-.14,4.22-.13,4.2-.12,4.2-.11,4.17-.1,4.15-.1,4.13-.09,4.1-.08,4.06-.08,4-.06,4-.07,4-.07,3.92-.06,3.86-.06,3.82-.06,3.76,0,3.71-.06,3.65,0,3.59-.06,3.52-.06,3.45-.06,3.38-.07,3.31-.07,3.23-.07,3.15-.31,10.81-.41,10.8-.49,10.81-.55,10.81-.61,10.8-.66,10.82-.68,10.81-.7,10.83-.26,3.89ZM320.4,880.59l.14-.25.71-1.29.67-1.26.13-.25-.07,0h-.12l-.11,0-.08.09-1.09,2h0l-.29.55,0,.08v.11l.05.11Zm106.42-37.27,0,0-.12-.62-.35-.46-.63-1-.56-1-.2-.43-.53-.47h0l.47,1,.57,1,.65,1Zm77.64-.52.6-.5.68-.65.34-1.72.36-1.69.39-1.66.4-1.64.39-1.61.4-1.58.16-.67h0l-.41.61,0,.05-.38,1.53-.4,1.61-.39,1.63h0l-.39,1.66-.36,1.69h0l-.33,1.62-.6.57-.22.19-.19.52ZM325.8,871.13,326,871l.06-.06.11-.15,1.37-2,1.38-2,1.4-1.88,1.42-1.8,1.44-1.73,1.46-1.67,1.48-1.6,1.51-1.53,1.53-1.47,1.56-1.42,1.58-1.36,1.61-1.32,1.64-1.26,1.68-1.21,1.7-1.19,1.75-1.14,1.78-1.1,1.81-1.08,1.85-1,1.9-1,1.93-1,2-1,2-1,2.06-1,2.11-.94,2.16-.94,2.21-.93,2.26-.94,2.3-.94,2.36-1,2.41-1,2.47-1,2.53-1,4.09-1.54,4.14-1.46.2-.06v0l-.22,0-.46-.05-3.75,1.32h0l-4.1,1.54h0l-2.53,1-2.47,1-2.41,1L377,833l-2.31.94h0l-2.26.94-2.2.93-2.17.94h0l-2.11,1-2.06.95h0l-2,1-2,1h0l-1.93,1-1.9,1-1.86,1h0l-1.81,1.07-1.79,1.11h0L348.79,847h0l-1.7,1.19h0l-1.68,1.21-1.65,1.27h0L342.12,852h0l-1.58,1.35h0L339,854.82l-1.53,1.47h0l-1.51,1.54h0l-1.48,1.59h0L333,861.11h0l-1.44,1.73h0l-1.42,1.81h0l-1.4,1.88h0l-1.39,2h0l-1.37,2h0l-.14.23,0,.11V871ZM565.24,693.35l1.63-2.32,1.52-2.3.19-.3,0,0h-.32l-.11.18-1.52,2.28-1.5,2.14-1.72-.44-2-.51-2-.53-1.55-.41h-.07v.32l1.55.41,2,.53,2,.5Z"/><path class="cls-24" d="M333.47,1012.53l.18-.42,6-14,2.35-5.44v-.15l-.16-1.1h0l-.35-2h0l-.4-1.94h0l-.42-1.88h0l-.47-1.81h0l-.49-1.74h0l-.54-1.68h0l-.56-1.63h0l-.58-1.58h0l-.63-1.54-.66-1.49v0l-.7-1.46-.71-1.42h0l-.74-1.4h0l-.78-1.37h0l-.8-1.34h0l-.84-1.33-.86-1.32h0l-.89-1.31h0l-.91-1.3h0l-.94-1.31-1-1.31h0l-1-1.33-1-1.33-1-1.35-1.07-1.37-1.08-1.39L321.22,951l-1.13-1.45L319,948l-1.17-1.54-1.19-1.58-1.21-1.64-1.23-1.69-1.25-1.74L311.64,938l-1.28-1.88-1.3-1.94-.94-1.51-.85-1.48-.75-1.48-.17-.38,0-.07-.09-.07-.12,0-.12,0,0,0,.11.26.17.39.76,1.48.85,1.5.95,1.51,1.3,2,1.29,1.87,1.26,1.82,1.25,1.74,1.23,1.69,1.21,1.64,1.19,1.58,1.17,1.54,1.15,1.51,1.13,1.45,1.11,1.43,1.08,1.39,1.06,1.37,1,1.35,1,1.33,1,1.32,1,1.31.94,1.31.91,1.3.89,1.31.86,1.33.84,1.32.8,1.35.77,1.37.75,1.39.71,1.42.69,1.46.65,1.49.63,1.53.59,1.58.56,1.64.54,1.68.49,1.75.46,1.8.43,1.88.39,2,.35,2,.17,1.08L339.31,998l-5.95,14-.2.52h0ZM460.28,874.25l-1.55-.06-1.53-.12-1.51-.18-1.51-.25-1.49-.31-1.47-.39-1.44-.45-1.43-.51-1.4-.58-1.38-.66-1.35-.71-1.32-.79-1.28-.87-1.26-.93-1.21-1L438,865.35l-1.13-1.15-1.1-1.23-1-1.29-1-1.38-.95-1.46-.91-1.53-.85-1.6-.79-1.69-.74-1.76-.69-1.85-.62-1.93-.56-2-.49-2.09-.2-1,.75.83.87.85.94.8,1,.76,1.07.72,1.12.67,1.18.64,1.24.59,1.3.55,1.34.51,1.39.47,1.42.44,1.47.39,1.51.36,1.54.32,1.58.29,1.62.25,1.64.21,1.65.18,1.69.15,1.7.11,1.73.09,1.73,0,1.74,0h1.76l1.75,0,1.76-.07,1.77-.1,1.76-.13,1.75-.15,1.75-.18,1.75-.2,1.72-.24,1.71-.26,1.69-.27,1.67-.31,1.65-.32,1.62-.36,1.58-.36,1.56-.4,1.52-.41,1.49-.43,1.44-.45,1.4-.47,1.36-.48,1.31-.51,1.27-.52,1.2-.54,1.14-.54,1.09-.57,1-.59,1-.6.9-.6.83-.62.07-.07-.17.49-.68,1.69-.74,1.65-.8,1.61-.84,1.57-.9,1.53-1,1.49-1,1.44-1.05,1.39-1.09,1.35-1.14,1.3-1.18,1.26-1.22,1.22L491.37,862l-1.29,1.12-1.31,1.07-1.35,1-1.38,1-1.4.92-1.43.86-1.45.81-1.47.76-1.49.71-1.5.65-1.51.59-1.53.54-1.55.48-1.55.43-1.55.37-1.56.3-1.56.26-1.55.19-1.56.13-1.56.06Zm0,.31h1.56l1.56-.06h0l1.56-.13h0l1.56-.19h0l1.57-.25h0l1.55-.31h0l1.55-.36h0l1.55-.43h0l1.55-.49h0l1.53-.54h0l1.52-.59h0l1.51-.65h0l1.49-.71h0l1.47-.76h0l1.46-.82h0l1.43-.87h0l1.4-.92h0l1.38-1h0l1.35-1h0l1.32-1.07h0l1.28-1.13h0l1.25-1.17h0l1.21-1.22h0l1.18-1.26h0l1.14-1.3h0l1.09-1.36h0l1-1.4h0l1-1.44h0l1-1.49h0l.9-1.53h0l.85-1.58h0l.79-1.61h0l.74-1.65h0l.68-1.7h0l.21-.58v-.15l0-.1-.09-.09-.11,0h-.12l-.1.06-.15.13-.81.61-.89.6-1,.59-1,.57-1.07.56-1.14.55-1.2.53-1.25.52-1.3.51-1.35.47-1.4.48-1.44.45-1.48.43-1.52.4-1.55.39-1.58.37-1.62.35-1.65.33-1.66.3-1.68.27-1.7.26-1.72.23-1.73.21-1.76.18-1.74.15-1.76.13-1.76.1-1.75.07-1.76,0h-1.75l-1.74,0-1.72-.05-1.72-.08-1.7-.11-1.68-.15-1.65-.18-1.62-.22-1.61-.24-1.57-.28-1.54-.33-1.5-.35-1.46-.39-1.42-.44-1.38-.47-1.33-.5L435.2,849l-1.22-.6-1.18-.62-1.11-.67-1.05-.7-1-.75-.92-.79-.86-.83-.78-.88,0,0,0,0-.11-.06h-.11l-.11,0-.1.08,0,.11v.12l.21,1.08v0l.5,2.09h0l.55,2h0l.62,1.92h0l.69,1.85h0l.74,1.77h0l.8,1.69h0l.85,1.61h0l.9,1.53v0l1,1.45h0l1,1.38h0l1,1.3h0l1.09,1.23,0,0,1.13,1.15h0l1.18,1.08v0l1.22,1h0l1.25.93h0l1.29.87h0l1.31.79h0l1.35.72h0l1.38.65h0l1.41.58h0l1.43.51h0l1.44.45h0l1.47.38h0l1.49.31h0l1.51.25h0l1.52.19h0l1.53.11h0ZM459.61,846h0l2.78,0h0l2.78-.1h0l2.77-.19h0l2.75-.27h0l2.74-.36h0l2.73-.45h0l2.71-.53h0l2.69-.63h0l2.66-.71h0l2.63-.79h0l2.61-.89h0l2.57-1h0l2.55-1.06h0l2.51-1.16,2.48-1.24h0l2.43-1.33h0l2.39-1.43h0l2.35-1.51h0l1.39-1h0l.9-.63h0l2.25-1.7h0l1.74-1.36,1.77-1.39,1.79-1.41h0l1.8-1.43,1.81-1.46,1.8-1.49,1.82-1.5h0l1.8-1.53,1.79-1.55,1.78-1.58h0l1.76-1.61,1.73-1.64h0l1.71-1.66,1.68-1.69h0l1.64-1.72,1.6-1.75h0l1.56-1.79h0l1.5-1.82h0l1.46-1.85h0l1.39-1.88h0l1.32-1.91h0l1.26-1.93h0l1.18-2h0l1.1-2h0l1-2h0l1-2.08h0l.86-2.12h0l.76-2.15h0l.65-2.2h0l.51-2h0l.4-2h0l.31-2h0l.23-2v0l.16-2h0l.08-2h0l0-2h0l0-2-.07-2-.11-2h0l-.14-2-.16-2h0l-.17-2-.18-2-.18-2,0-.28.1,0h0l1.29-.72h0l1.24-.8h0l1.21-.88h0l1.17-.95v0l1.12-1h0l1.07-1.1h0l1-1.17v0l1-1.24h0l.91-1.3h0l.84-1.37h0l.78-1.41v0l.73-1.47h0l.66-1.52v0l.58-1.57h0l.52-1.61h0l.44-1.66h0l.37-1.7h0l.3-1.74v0l.21-1.76v0l.13-1.79h0l0-1.83v0l0-1.82h0l-.13-1.8v0l-.21-1.76v0l-.3-1.73h0l-.37-1.7h0l-.44-1.66h0l-.52-1.62h0l-.58-1.56v0l-.66-1.52v0l-.73-1.46v0l-.78-1.42h0l-.84-1.36h0l-.91-1.3h0l-1-1.23v0l-1-1.18h0l-1.07-1.1h0l-1.12-1h0l-1.17-1h0l-1.13-.82v-.15l-.31-.09v.41l0,0,1.21.88,1.16,1,1.11,1,1.07,1.1,1,1.18,1,1.23.91,1.3.84,1.36.78,1.42.72,1.46.66,1.52.58,1.57.52,1.62.45,1.65.37,1.7.29,1.73.21,1.76.13,1.8,0,1.82,0,1.83-.13,1.79-.21,1.76-.29,1.74-.37,1.7-.45,1.65-.52,1.62-.58,1.57-.66,1.52-.72,1.46-.78,1.42-.84,1.36-.91,1.3-1,1.23-1,1.17-1.07,1.1-1.11,1-1.16,1-1.21.88-1.25.8-1.29.71-.29.14,0,.5.18,2,.18,2,.17,2,.16,2,.14,2,.11,2,.07,2,0,2,0,2-.09,2-.16,2-.22,2-.32,2-.4,2-.5,2-.66,2.2-.76,2.15-.85,2.11-.94,2.08-1,2-1.1,2-1.19,2-1.26,1.94-1.32,1.91-1.39,1.88-1.46,1.83-1.5,1.82-1.55,1.78-1.6,1.76-1.64,1.71-1.68,1.7-1.71,1.66-1.74,1.64L529.18,814l-1.78,1.58-1.79,1.56-1.8,1.53-1.82,1.5-1.8,1.48-1.81,1.47-1.79,1.43L514.8,826,513,827.36l-1.75,1.36-2.25,1.7-.9.63-1.39,1-2.35,1.51L502,835l-2.43,1.32-2.47,1.24-2.52,1.15-2.54,1.06-2.57,1-2.62.89-2.63.79-2.66.72-2.69.62-2.71.53-2.73.45-2.73.36-2.76.27-2.77.2-2.78.1-2.78,0-2.79-.07-2.79-.16-2.79-.24-2.65-.3-2.68-.37-2.72-.45-2.75-.52-2.78-.58-2.8-.66-2.82-.73-2.83-.79-2.85-.85-1.91-.62-.93-.31-2.86-1-2.84-1L415,835.87l-2.83-1.17-2.83-1.23-2.8-1.28-2.8-1.35-2.76-1.4L398.22,828l-2.7-1.5-.26-.14-.2.06-.19.06.25.15h0l.24.14,2.71,1.5h0l2.74,1.46h0l2.76,1.4h0l2.79,1.34,2.81,1.29h0L412,835l2.84,1.17,2.86,1.11,2.85,1.05h0l2.85,1,.93.31,1.92.61h0l2.85.86h0l2.83.79h0l2.81.73h0l2.8.65h0l2.77.59,2.75.51h0l2.72.46h0l2.69.38h0l2.66.29h0l2.79.25h0l2.79.15h0Z"/><path class="cls-25" d="M1135,1033.2h1.81l1.79,0h0l1.77-.1h0l1.76-.17h0l1.74-.21h0l1.72-.27h0l1.69-.34h0l1.66-.39h0l1.64-.46h0l1.62-.53h0l1.58-.59h0l1.56-.67h0l1.52-.74h0l1.48-.81h0l1.44-.89h0l1.41-1h0l0,0,.23-.53v0l-.45.34-1.41,1-1.45.88-1.48.81-1.53.73-1.54.67-1.58.59-1.62.53-1.64.46-1.66.4-1.69.33-1.72.28-1.72.21-1.76.17-1.77.1-1.79.05H1135l-1.82-.05-1.83-.1-1.84-.14-1.85-.18-1.85-.23-1.86-.26-1.87-.3-1.87-.34-1.87-.37-1.87-.4-1.87-.44-1.86-.46-1.86-.49-1.85-.52-1.84-.53-1.83-.55-1.82-.58-1.81-.59-1.79-.61-1.77-.63-1.76-.63-1.74-.65-1.71-.65-1.69-.65-1.67-.66-1.63-.67-1.62-.66-1.58-.66-1.55-.66-1.52-.65-1.48-.65-1.46-.64-1.4-.62-1.45-.65-1.51-.72-1.59-.77-1.64-.81-1.7-.87-1.73-.91-1.78-1-1.82-1-1.83-1-1.85-1.05-1.87-1.09-1.86-1.12-1.86-1.13-1.84-1.15-1.83-1.17-1.8-1.19-1.78-1.19-1.72-1.2-1.68-1.2-1.63-1.21-1.56-1.19-1.49-1.2-1.64-1.37-1.56-1.38-1.5-1.39-1.44-1.38L1032,987l-1.38-1.39-1.35-1.37-1.35-1.38-1.36-1.37-1.37-1.36-1.41-1.36-1.45-1.34-1.51-1.35-1.58-1.32-1.67-1.32-1.75-1.3-1.49-1.08-1.53-1.14-1.56-1.18-1.56-1.22-1.57-1.27-1.58-1.31-1.57-1.36-1.56-1.38-1.54-1.44-.39-.37L1001,960l-.49-.4-.53-.43-.55-.46-.59-.5-.61-.52-.62-.56-.65-.57-.67-.6-.67-.62-.69-.62-.69-.64-1.42-1.31-.7-.65-.7-.67-.7-.66-.69-.65,0,0-.64-.62-.67-.63-.66-.62-.63-.61-.61-.59-.6-.57-.56-.54-.53-.52-.51-.48-.47-.46-.43-.42-.4-.38-.35-.34-.74-.73-.7-.74-.7-.75-.65-.75-.32-.39-.31-.37-.59-.76-.54-.76-.5-.76-.45-.74-.4-.75-.34-.73-.29-.71-.22-.7L976,933l-.08-.66v-.63l.08-.6.15-.57.24-.54.32-.51.45-.51.46-.42.49-.33.49-.24.52-.15.53-.08h.55l.54.06.56.13.58.18.57.24.58.28.58.32.58.38.53.36h0v-.12l-.15-.15-.61-.63-.62-.64-.61-.66-.6-.68-.59-.68-.56-.68-.55-.7-.5-.7-.48-.71-.44-.71-.38-.7-.34-.71-.28-.68-.22-.7-.16-.68-.08-.66v-.66l.07-.64.17-.62.26-.6.33-.59.45-.55.47-.45.48-.36.52-.27.54-.18.55-.11.58,0,.6,0,.61.12.63.17.63.25.66.29.65.34.67.38.53.34.3-.55.12-.18-.47-.6-.54-.76-.52-.75-.46-.75-.41-.75-.36-.74-.3-.73-.24-.73-.17-.7-.11-.69,0-.69.06-.66.14-.65.23-.62.32-.61.43-.58.44-.46.47-.36.5-.26.52-.18.55-.09.58,0,.59.06.62.14.64.2.64.27.68.32.67.37.7.43.7.46.71.52.71.54.72.58.72.61.73.63.2,0-.14-.17-.58-.75-.54-.75-.52-.76-.47-.75-.42-.75-.37-.74-.32-.74-.25-.72-.2-.71-.11-.69,0-.69,0-.65.13-.64.23-.61.31-.59.38-.48.42-.4.47-.3.5-.21.54-.14.59,0,.61,0,.64.09.67.17.7.22.72.29.74.34.76.41.77.43.79.49.79.54.81.57.81.61.8.63.57.47.23.19.81.69.8.7.79.71.78.73.76.72.67.66.68.69.69.73.7.76.7.79.71.81.7.83.69.84.18.23h0l0,0,.5.62.67.88.65.88.62.89.61.88.56.88.54.88.5.86.45.85.4.83.37.82.22.58.53.87.48.9.43.9.74,1.66.73,1.59.69,1.51.68,1.43.65,1.37.64,1.3.64,1.24.62,1.18.64,1.11.63,1.07.64,1,.64,1,.67.92.67.89.71.84.73.8.77.77.8.74.84.71.89.69.94.67,1,.65,1,.64,1.1.64,1.16.61,1.24.61,1.3.62,1.38.61,1.47.61,1.55.63,1.64.64,1.72.64,1.83.66,1.93.68,1.08.36,1.19.35,1.29.34,1.38.34,1.48.33,1.58.33,1.65.32,1.75.33,1.81.32,1.89.32,2,.32,2,.33,2.09.32,2.15.33,2.2.34,2.26.34,2.3.34,2.35.35,2.38.37,2.42.37,2.45.38,2.47.39,2.5.41,2.52.41,2.53.43,2.55.44,2.55.46,2.55.48,2.56.49,2.55.51,2.54.54,2.53.55,2.51.57,2.49.59,2.47.62,2.44.65,2.41.66,1.85.53,1.82.55,1.79.57,1.77.58,1.74.6,1.71.62,1.67.64,1.64.65,1.61.68,1.56.69,1.52.71,1.49.74,1.44.75,1.4.77,1.34.8,1.3.81,1.24.84,1.2.87,1.13.88,1.08.91,1,.94,1,1,.9,1,.83,1,.77,1,.7,1.06.63,1.09.56,1.11.48,1.14.42,1.17.33,1.2.13.6h0l.13-.65v-.08l-.32-1.15v0l-.42-1.17h0l-.48-1.14v0l-.56-1.11v0l-.63-1.09h0l-.71-1.06h0l-.77-1h0l-.83-1v0l-.9-1h0l-1-.95h0l-1-.94h0l-1.08-.91h0l-1.13-.88h0l-1.2-.87h0l-1.24-.84h0l-1.29-.82h0l-1.34-.79h0l-1.4-.78h0l-1.44-.75h0l-1.49-.73h0l-1.53-.71-1.56-.7h0l-1.61-.68h0l-1.65-.65-1.67-.64h0l-1.7-.61h0l-1.74-.61-1.77-.58-1.8-.57-1.82-.54h0l-1.85-.54h0l-2.4-.67h0l-2.44-.64-2.47-.62-2.49-.6h0l-2.51-.56-2.53-.56-2.55-.53-2.55-.51-2.55-.5-2.56-.47h0l-2.55-.46-2.55-.44-2.52-.43-2.52-.42-2.5-.41h0l-2.47-.39-2.46-.38-2.41-.38-2.39-.36-2.34-.35-2.3-.35-2.26-.34-2.2-.33-2.15-.33-2.09-.32-2-.32-2-.32-1.89-.33-1.82-.32-1.74-.32-1.65-.33-1.57-.32-1.48-.34-1.38-.34-1.28-.34-1.18-.33-1.08-.36-1.91-.68-1.83-.66-1.72-.65-1.64-.63-1.54-.63-1.46-.61-1.38-.61-1.29-.61-1.23-.6-1.16-.62-1.09-.62-1-.64-1-.65-.92-.66-.88-.68-.83-.71-.8-.73-.75-.75-.72-.8-.7-.83-.67-.87-.66-.91-.65-1-.63-1-.63-1.07-.62-1.11-.62-1.17-.63-1.24-.65-1.29-.65-1.36-.67-1.43-.7-1.51-.72-1.59-.75-1.66h0l-.43-.9h0l-.48-.9h0l-.5-.85-.22-.56h0l-.37-.82h0l-.41-.84h0l-.45-.85h0l-.5-.87h0l-.54-.87h0l-.57-.88h0l-.6-.89h0l-.62-.89h0l-.65-.88h0l-.67-.88h0l-.51-.63-.18-.22h0l-.69-.85h0l-.7-.83h0l-.7-.81-.7-.79h0l-.7-.75-.69-.73h0l-.68-.69-.66-.66h0l-.76-.72-.79-.73h0l-.79-.71h0l-.8-.7h0l-.81-.69-.23-.2-.57-.46h0l-.81-.64h0l-.81-.61-.81-.57h0l-.8-.53h0l-.78-.49h0l-.78-.44h0l-.76-.4h0l-.74-.35h0l-.72-.29h0l-.7-.23h0l-.67-.17h0l-.65-.09h0l-.62,0h0l-.59,0H996l-.54.14h0l-.52.22,0,0-.47.3,0,0-.42.4,0,0-.38.49,0,0-.32.59v0l-.23.61v0l-.14.65v0l-.05.66v0l0,.68v0l.11.7v0l.19.72v0l.26.72h0l.31.74v0l.38.74h0l.43.76h0l.47.75h0l.51.76h0l-.66-.54h0l-.71-.54h0l-.71-.52h0l-.7-.47h0l-.69-.43h0l-.68-.37h0l-.67-.33h0l-.65-.27h0l-.64-.21h0l-.62-.14h0L988,902h-.66l-.55.1h0l-.53.18,0,0-.51.27,0,0-.47.36,0,0-.44.47,0,0-.43.58,0,0-.33.61v0l-.23.63,0,0-.14.65v0l-.06.67v0l0,.68v0l.11.7v0l.18.71v0l.24.73v0l.3.73v0l.36.74h0l.42.75h0l.46.75h0l.51.75h0l.54.76h0l.34.43v0l-.14.26-.26-.17h0l-.67-.38h0l-.66-.34h0l-.65-.29h0l-.65-.24h0l-.62-.17h0l-.62-.12h0l-.61,0h0l-.58,0h0l-.56.1h0l-.54.18,0,0-.52.27,0,0-.49.36,0,0-.47.46,0,0-.45.56,0,0-.35.59,0,0-.25.61,0,0-.16.62v.05l-.07.64v.72l.08.67v0l.15.68v0l.22.7v0l.28.7h0l.34.71h0l.39.71h0l.43.71h0l.48.71h0l.5.7h0l.55.7h0l.56.69h0l.59.68.61.68h0l.54.59-.45-.23h0l-.57-.24h0l-.58-.18h0l-.56-.12h0l-.55-.06h-.62l-.54.08h0l-.52.16h0l-.5.24,0,0-.49.33,0,0-.46.42,0,0-.45.52,0,0-.33.51,0,0-.24.55,0,0-.16.58v0l-.08.6v.71l.08.66v0l.16.68v0l.23.7v0l.29.72h0l.35.74v0l.4.74h0l.45.75v0l.51.76h0l.55.76h0l.59.76h0l.31.37.31.39h0l.66.76h0l.69.74.71.75h0l.74.73h0l.36.34.39.37.43.42.47.46h0l.5.47.53.52h0l.56.54.59.57.61.58h0l.64.61.65.62.67.63.64.61,0,0h0l.69.65.7.66.7.67.71.65,1.41,1.31.7.64h0l.69.62.67.62h0l.66.59.65.58.63.55.61.53.58.5h0l.55.46h0l.53.43h0l.5.39.44.35.39.37,1.53,1.44h0l1.56,1.39,1.57,1.35h0l1.58,1.31,1.57,1.27h0l1.57,1.22h0l1.55,1.18h0l1.53,1.13,1.49,1.09,1.75,1.3L1019,975l1.58,1.32,1.5,1.34,1.45,1.34,1.39,1.35,1.38,1.36,1.36,1.38,1.34,1.37,1.36,1.38,1.37,1.38,1.4,1.39h0l1.44,1.38,1.5,1.39h0l1.56,1.38h0l1.64,1.38h0l1.5,1.19h0l1.57,1.2h0l1.63,1.21,1.68,1.2h0l1.72,1.21,1.77,1.19,1.8,1.18h0l1.83,1.17,1.85,1.15h0l1.86,1.14,1.86,1.11,1.87,1.09h0l1.85,1,1.84,1,1.81,1h0l1.78,1,1.74.91h0l1.7.87h0l1.64.82,1.59.77,1.51.71h0l1.45.65,1.4.62h0l1.45.64,1.48.65,1.53.65,1.55.66,1.58.66h0l1.61.66,1.64.67,1.67.66,1.69.65,1.71.65,1.75.65h0l1.76.64,1.77.62h0l1.78.61,1.81.59h0l1.82.58,1.83.56h0l1.85.53,1.85.52h0l1.87.48,1.86.47h0l1.87.43,1.87.41h0l1.87.37h0l1.87.34h0l1.87.3h0l1.86.27h0l1.86.23h0l1.85.18h0l1.84.13h0l1.83.1h0Zm-125.14-215h0l1.82,0h0l1.78-.05h0l1.73-.1h0l1.85-.14h0l1.76-.18h0l1.66-.23h0l1.57-.26h0l1.49-.31h0l1.4-.35h0l1.31-.38h0l1.23-.44h0l1.16-.48h0l1.08-.52h0l1-.57h0l.93-.62h0l.86-.66,0,0,.79-.72h0l.72-.76h0l.66-.8v0l.6-.85,0,0,.54-.9h0l.48-1v0l.43-1v0l.38-1.05h0l.33-1.11v0l.28-1.15v0l.24-1.22h0l0-.22-.25-.3h0l-.07.48-.24,1.22-.29,1.16-.33,1.11-.38,1-.43,1-.48,1-.55.9-.6.85-.66.8-.73.75-.79.72-.85.66-.94.61-1,.56-1.08.52-1.14.48-1.24.44-1.31.39-1.4.35-1.49.3-1.57.27-1.66.22-1.76.19-1.85.14-1.73.1-1.78,0-1.82,0-1.86,0-1.89-.07-1.9-.12-1.91-.17-1.89-.22-1.89-.27-1.86-.33-1.83-.39-1.79-.44-1.73-.51-1.67-.58-1.24-.47-1.15-.48-1-.49-1-.49-.87-.49-.8-.51-.7-.54-.64-.54-.57-.57-.5-.58-.43-.63-.38-.64-.33-.69-.28-.71-.22-.76-.2-.81-.15-.84-.12-.89-.09-.95-.06-.84h0l-.26.3,0,.56h0l.1.95h0l.12.89h0l.15.85v0l.19.8v0l.23.76v0l.28.72v0l.32.69,0,0,.39.64v0l.44.63,0,0,.5.59h0l.57.57h0l.64.55h0l.72.54h0l.79.52h0l.87.5h0l.95.49h0l1.05.48h0l1.15.48h0l1.25.47h0l1.67.58h0l1.73.51h0l1.78.44h0l1.83.39h0l1.87.32h0l1.89.27h0l1.9.22h0l1.92.17h0l1.9.12h0l1.88.07h0ZM934.59,785l.24-.16,0,0v0l-1.42-.72-3-1.6-3-1.67-2.94-1.74-2.9-1.82-2.86-1.88-2.82-2-2.77-2-2.72-2.07-2.68-2.14-2.62-2.2-2.58-2.26-.1-.09,0,0-.11.29,0,0,2.58,2.25,2.63,2.2h0l2.68,2.14h0l2.72,2.08h0l2.77,2h0l2.81,1.94,2.87,1.89h0l2.9,1.82h0l2.94,1.74h0l3,1.68h0l3,1.6h0Z"/><path class="cls-26" d="M1119.83,867.58h0l.59,0h0l.63-.07h0l.65-.09h0l.65-.13h0l.66-.16h0l.67-.2h0l.67-.23h0l.67-.26h0l.67-.3h0l.65-.33h0l.64-.35h0l.61-.37h0l.59-.4h0l.62-.49h0l.62-.54h0l.62-.6h0l.62-.62.62-.64.62-.63.61-.59.6-.57.6-.51.57-.43.56-.34.61-.29.58-.18.58-.12.58-.06h.56l.58.06.57.09.59.13.6.16.61.16.63.18h0l.64.17.65.16h0l.67.14h0l.69.11h0l1.15.12.72.07.22-.26v0l-.91-.09-1.15-.12-.69-.11-.67-.14-.65-.15-.64-.17-.62-.18-.62-.17-.6-.16-.6-.13-.6-.09-.6-.06h-.6l-.61.06-.61.12-.61.2-.64.3-.59.36-.6.45-.61.51-.6.58-.62.6-.62.63-.62.64-.62.62-.63.59-.62.55-.62.48-.59.41-.61.37-.63.34-.65.32-.66.29-.66.27-.67.23-.67.2-.66.16-.65.14-.64.09-.62.06-.6,0-.57,0-.54,0-.51-.1-.47-.15-.42-.19-.38-.22-.32-.28-.27-.32-.2-.38-.14-.41-.08-.47v-.53l.08-.57.15-.63.24-.7.34-.74.39-.77.46-.76.52-.78.55-.77.59-.77.62-.75.63-.76.65-.74.66-.73.66-.72.65-.71.63-.69.61-.66.59-.64.54-.62.51-.6.45-.57.38-.53.33-.51.26-.46.17-.45.09-.39,0-.38-.41-.16-.43-.05-.44,0-.46.13-.49.22-.49.3-.52.37-.54.43-.56.5-.57.55-.58.6-.61.65-.61.69-.63.72-.65.76-.67.76-.68.79-.68.81-.71.81-.72.81-.73.8-.74.79-.75.78-.77.76-.78.73-.78.69-.79.66-.8.61-.82.57-.82.51-.83.45-.84.38-.84.31-.85.24-.86.15-.86.07h-.76l-.68-.06-.58-.11-.52-.16-.41-.2-.35-.26-.28-.29-.19-.33-.14-.38-.07-.41v-.45l.05-.47.11-.52.16-.54.21-.58.26-.59.3-.63.35-.65.37-.67.43-.69.45-.71.47-.72.51-.74.53-.75.55-.75.57-.77.58-.78.59-.77.61-.79.6-.77.61-.79,1.22-1.55.59-.76.59-.76.58-.75.57-.73.54-.72.52-.71.49-.69.48-.67.44-.64.4-.62.37-.61.34-.57.28-.54.24-.51.2-.49.14-.45.08-.41,0-.38,0-.34-.1-.3-.15-.15-.2-.1-.24,0-.29,0-.32.1-.38.15-.39.2-.44.26-.46.3-.51.33-.52.38-.56.4-.58.44-.61.47-.62.49-.65.52-.68.54-.68.55-.69.56-.7.58-.72.58-1.45,1.16-.74.58-.74.58-.73.56-.74.55-.73.54-.73.51-.72.5-.71.46-.69.44-.69.41-.67.36-.65.34-.64.29-.6.25-.59.2-.57.16-.53.09-.51,0-.48,0-.43-.09-.4-.15-.38-.21-.32-.29-.3-.36-.24-.45-.21-.53-.16-.62-.11-.7-.06-.8v-.73l.1-.74.17-.75.25-.74.32-.75.38-.75.43-.76.49-.76.53-.75.59-.76.61-.75.65-.75.67-.75.7-.75.72-.74.72-.75.73-.72.74-.73.72-.72.72-.71.7-.7.68-.69.66-.68.63-.68.59-.65.55-.65.51-.64.45-.62.4-.6.34-.59.27-.57.2-.57.12-.53,0-.53-.05-.5-.14-.49-.25-.46-.35-.45-.43-.07h-.43l-.48.07-.49.11-.52.18-.54.23-.54.27-.57.31-.59.35-.6.38-.61.4-.61.43-.63.45-.63.45-.63.46-.64.47-1.27.92-.64.45-.63.43-.62.4-.62.38-.6.36-.59.3-.58.28-.55.24-.54.18-.53.13-.49.07h-.49l-.44-.06-.42-.13-.4-.21-.36-.3-.34-.37-.3-.48-.27-.56-.24-.73-.14-.73,0-.74,0-.73.13-.73.21-.75.28-.75.35-.76.4-.77.47-.78.51-.8.56-.81.6-.82.62-.85.65-.86.67-.88.69-.91.68-.93.7-1,.75-1.06.68-1.07.65-1.06.6-1,.58-1,.5-1-.47,0-2.23-.12-1.17-.05-1.26-.06-1.38-.09-1.47-.08-1.57-.12-1.67-.11-1.75-.13-1.85-.14-1.93-.15-2-.15-2.1-.16-2.18-.17-2.25-.17-2.32-.18-2.4-.17-2.45-.18-2.53-.18-2.59-.18-2.64-.18-2.7-.18-2.76-.16-2.8-.17-2.86-.16-2.89-.15-3-.15-.4,0v0l.25.3h.15l2.94.14,2.9.15,2.85.16,2.81.17,2.75.16,2.7.18,2.64.18,2.59.18,2.52.18,2.46.18,2.4.17,2.32.18,2.25.17,2.18.17,2.09.16,2,.15,1.93.15,1.85.14,1.75.13,1.67.12,1.57.11h0l1.47.09,1.37.08,1.27.06,1.16,0,2.23.13-.29.53-.57,1-.59,1-.65,1.06-.68,1.06-.74,1-.69,1-.69.92-.69.91-.67.88-.65.86h0l-.62.85-.6.82h0l-.57.81-.51.8h0l-.46.78h0l-.41.77v0l-.34.76v0l-.29.75v0l-.21.74v0l-.13.74v0l0,.73v0l0,.73v0l.14.74v0l.24.74,0,0,.27.57v0l.3.48,0,0,.34.38,0,0,.36.29,0,0,.4.22,0,0,.43.13h0l.45.06h.57l.5-.07h0l.52-.13h0l.54-.18h0l.56-.24h0l.58-.27h0l.59-.31h0l.6-.35h0l.62-.38h0l.62-.41h0l.62-.43h0l.63-.45,1.28-.91.64-.47.63-.46.63-.45.63-.44.61-.43.6-.4.59-.38.58-.34.56-.31.53-.26.52-.22.5-.17.46-.11.43,0h.39l.29,0,.26.33.22.4.13.44,0,.44,0,.48-.11.5-.19.52-.26.55-.32.58-.4.59-.44.6-.5.63-.55.64-.58.65-.63.67-.65.68-.68.69-.7.7-.72.71-.73.72-.73.73-.73.72-.72.74h0l-.71.74-.7.75h0l-.67.75-.65.75h0l-.62.75h0l-.59.76h0l-.53.75v0l-.49.75v0l-.44.76h0l-.39.76h0l-.32.75v0l-.25.75v0l-.18.75v0l-.1.74v0l0,.73v0l.07.8v0l.11.7v0l.16.63,0,0,.21.53v0l.25.45,0,0,.29.37,0,0,.33.3,0,0,.37.22h.05l.4.16h0l.44.09h0l.48,0h0l.52,0h0l.54-.1h0l.57-.15h0l.59-.2h0l.61-.25h0l.64-.29h0l.65-.34h0l.67-.37h0l.69-.41h0l.69-.45h0l.72-.47h0l.72-.49h0l.73-.52h0l.73-.54h0l.74-.55.73-.56h0l.74-.57.73-.59h0l1.46-1.16.72-.58.7-.58.7-.56.67-.55.67-.53.64-.52.63-.5.61-.46.57-.44.55-.41.52-.36.5-.33.46-.3.42-.24.38-.19.35-.14.28-.09.23,0,.15,0,.11,0,.06.06.07.19,0,.28,0,.33-.08.38-.13.43-.19.46-.23.5-.28.53-.33.56-.36.6-.4.62-.44.64-.47.66-.49.69-.52.7-.54.72-.56.73-.58.75-.59.76-.59.77-1.22,1.55-.61.78-.61.78-.6.78h0l-.6.77-.58.78h0l-.57.77-.55.75-.53.75h0l-.5.74-.48.72h0l-.45.71h0l-.42.69h0l-.38.67h0l-.34.64h0l-.31.63h0l-.26.6v0l-.2.57v0l-.17.54v0l-.1.51v0l0,.49v.52l.07.42v0l.14.38,0,.05.2.33,0,.05.27.29,0,0,.36.26,0,0,.42.21h0l.52.16h0l.59.11h0l.68.06h.82l.85-.06h0l.86-.15h0l.85-.24h0l.85-.31,0,0,.84-.38h0l.83-.45h0l.81-.52h0l.82-.57h0l.81-.61h0l.8-.66h0l.78-.7h0l.77-.72h0l.77-.76h0l.76-.78.74-.79.73-.81h0l.72-.81.71-.82.69-.8.68-.79.66-.77.65-.75.63-.72.61-.68.6-.65.59-.6.56-.54.54-.49.52-.42.5-.36.47-.28.45-.2.42-.12.37,0,.36,0,.19.08v.12l-.08.33-.15.4-.24.44-.32.49-.38.52-.45.56-.5.59-.54.62-.58.63-.61.67-.63.69-.65.7-.66.72h0l-.66.73-.65.74h0l-.64.76h0l-.61.76h0l-.59.76h0l-.55.77h0l-.51.77v0l-.46.76v0l-.4.77h0l-.33.75v0l-.25.69v0l-.16.63v0l-.08.58v.6l.07.48v0l.15.42,0,.05.2.37,0,0,.27.33,0,0,.32.29,0,0,.38.23,0,0,.43.18,0,0,.47.14h0l.5.1h0l.55.06h0ZM937.27,808.35h.12l1.3-.34,2.83-.68,2.87-.63,2.92-.6,3-.55,3-.52,3-.47,3.07-.45,3.09-.4,3.12-.37,3.15-.34,3.17-.31,3.18-.27,3.2-.25.34,0,.26-.3v0l-.62,0-3.2.25-3.19.27-3.17.31-3.15.34-3.12.36-3.11.41-3.07.45-3,.47-3,.52-3,.56-2.92.59-2.87.64-2.84.68-1.27.33-.24-1.73-.33-2.45-.33-2.45-.3-2.43-.27-2.41-.26-2.4-.23-2.37-.19-2.34-.17-2.32-.12-2.29h0l0,0,0,0-.24.16.12,2.14h0l.17,2.32.19,2.34h0l.23,2.37.25,2.4h0l.28,2.41.3,2.43.32,2.45h0l.34,2.45.25,1.76,0,.11.08.08ZM664,787.15h0l2.58,0h0l2.6-.1,2.61-.15h0l2.62-.21h0l2.62-.26h0l2.63-.31h0l2.64-.36,2.63-.41h0l2.63-.47h0l2.64-.5h0l2.63-.56,2.64-.61h0l2-.5,0-.31v0l-2.13.54-2.63.6-2.64.56-2.64.51L685,785l-2.64.41-2.63.36-2.63.31-2.62.26-2.62.21-2.61.15-2.59.09-2.59.05h-2.57l-2.56-.07-2.55-.11-2.53-.18-2.5-.23-2.49-.29-2.47-.34-2.45-.4-2.43-.47-2.4-.52-2.38-.57-2.35-.64L632,782.3l-2.3-.75-2.25-.83-2.23-.88-2.19-1-2.16-1-2.12-1.08-2.09-1.12-2.05-1.21-2-1.27-.8-.54v0l.18.46.46.32h0l2,1.26h0l2,1.21h0l2.1,1.13h0l2.12,1.07h0l2.16,1h0l2.2,1h0l2.23.89h0l2.26.83h0l2.29.75h0l2.32.71h0l2.36.64h0l2.37.58,2.41.52h0l2.42.46h0l2.45.4h0l2.47.35h0l2.49.28h0l2.51.23h0l2.53.18h0l2.55.12h0l2.56.06H664ZM700.24,806h0l2.73-.06h0l2.79-.12h0l2.84-.19h0l2.89-.25,2.93-.32h0l2.95-.38h0l3-.45h0l3-.5,3-.56h0l3-.61h0l3.06-.66,3-.71h0l3-.77h0l3-.81h0l3-.87h0l3-.9,3-.95h0l2.93-1h0l2.89-1h0l2.84-1.08h0l2.79-1.1h0l2.73-1.15h0l2.67-1.17h0l2.6-1.21h0l2.52-1.24h0l2.44-1.27h0l2.35-1.3h0l2.26-1.32h0l.08-.08,0-.11v-.12l-1-4-.09-.4-.34-.17h0l.15.63,1,4L777.37,785l-2.35,1.3-2.45,1.26-2.52,1.24L767.44,790l-2.66,1.17L762,792.33l-2.78,1.1-2.84,1.08-2.9,1-2.93,1-3,1-3,.91-3,.86-3,.81-3.05.77-3,.71-3.06.67-3,.61-3,.55-3,.5-3,.44-3,.39-2.93.31-2.89.25-2.84.2-2.78.12-2.73.06-2.66,0-2.57-.09.18-1.67.2-1.81.22-1.89.26-2,.27-2,.3-2.12.32-2.16.33-2.23.35-2.26.36-2.3.38-2.34v-.07h0l-.1.05-.2.09L697.5,785h0l-.36,2.3-.35,2.26-.33,2.23-.32,2.16-.3,2.12h0l-.27,2-.26,2-.23,1.9-.2,1.8-.17,1.71v.11l.06.1.09.08.12,0,2.6.08h0Z"/><path class="cls-27" d="M742.53,1111.65l-1.18-.05-1.14-.15-1.13-.24-1.08-.33-1-.41-1-.5-1-.57-.9-.65-.84-.72-.78-.78-.71-.84-.66-.9-.56-.94-.5-1-.42-1-.33-1.09-.24-1.11-.15-1.15,0-1.18,0-1.18.15-1.15.24-1.12.33-1.08.42-1,.5-1,.56-1,.66-.9.71-.83.78-.78.84-.72.9-.65,1-.57,1-.5,1-.41,1.08-.33,1.13-.24,1.14-.15,1.18-.05,1.19.05,1.14.15,1.12.24,1.09.33,1,.41,1,.5.95.57.9.65.83.72.78.78.73.83.64.9.57,1,.5,1,.41,1,.33,1.08.25,1.12.15,1.15.05,1.18-.05,1.18-.15,1.15-.25,1.11-.33,1.09-.41,1-.5,1-.57.94-.64.9-.73.84-.78.78-.83.72-.9.65-.95.57-1,.5-1,.41-1.09.33-1.12.24-1.14.15Zm0,.31h0l1.18,0h0l1.15-.15h0l1.12-.23h0l1.09-.33h0l1.05-.41h0l1-.5h0l1-.58h0l.9-.65,0,0,.84-.71h0l.79-.79h0l.72-.84v0l.65-.9v0l.58-1v0l.5-1v0l.41-1v0l.33-1.09v0l.24-1.11v0l.15-1.16v0l0-1.17v0l0-1.19v0l-.15-1.15v0l-.24-1.12v0l-.33-1.08v0l-.41-1v0l-.5-1v0l-.58-1v0l-.65-.9v0l-.72-.84h0l-.79-.78v0l-.84-.72h0l-.9-.65,0,0-1-.57h0l-1-.5h0l-1.05-.41h0l-1.09-.33h0l-1.12-.25h0l-1.15-.16h0l-1.18,0h0l-1.18,0h0l-1.16.16h0l-1.13.25h0l-1.08.33h0l-1,.41h0l-1,.5h0l-.95.57,0,0-.9.65h0l-.85.72v0l-.78.78h0l-.71.84v0l-.65.9,0,0-.57,1,0,0-.5,1v0l-.42,1v0l-.33,1.08v0l-.25,1.12v0l-.15,1.15v0l-.05,1.19v0l.05,1.17v0l.15,1.16v0l.25,1.11v0l.33,1.09v0l.42,1v0l.5,1,0,0,.57,1,0,0,.65.9v0l.71.84,0,0,.78.79h0l.85.71v0l.9.65h0l.95.58h0l1,.5h0l1,.41h0l1.08.33h0l1.12.23h0l1.16.15h0ZM636,1094.37l-1.19,0-1.14-.14-1.12-.25-1.09-.33-1-.41-1-.5-1-.57-.9-.65-.83-.72L626,1090l-.72-.84-.65-.9-.57-1-.49-1-.43-1-.32-1.09-.25-1.12-.15-1.15,0-1.18,0-1.18.15-1.15.25-1.12.32-1.08.43-1,.49-1,.57-1,.65-.89.72-.84.78-.78.83-.72.9-.65,1-.56,1-.5,1-.42,1.09-.33,1.12-.24,1.14-.15,1.19,0,1.18,0,1.15.15,1.12.24,1.08.33,1,.42,1,.5,1,.56.9.65.84.72.78.78.72.84.65.89.56,1,.5,1,.42,1,.33,1.08.24,1.12.15,1.15,0,1.18,0,1.18-.15,1.15-.24,1.12-.33,1.09-.42,1-.5,1-.56,1-.65.9-.72.84-.78.78-.84.72-.9.65-1,.57-1,.5-1,.41-1.08.33-1.12.25-1.15.14Zm0,.31h0l1.18,0h0l1.16-.14h0l1.12-.24h0l1.08-.33h0l1-.41h0l1-.5h0l.95-.58h0l.9-.65,0,0,.84-.71h0l.78-.79,0,0,.71-.84v0l.66-.9v0l.57-1,0,0,.5-1v0l.42-1v0l.33-1.09v0l.24-1.12v0l.15-1.16v0l.05-1.17v0l-.05-1.19v0l-.15-1.15v0l-.24-1.13v0l-.33-1.08v0l-.42-1v0l-.5-1,0,0-.57-1v0l-.66-.89h0l-.71-.85,0,0-.78-.78v0l-.85-.72h0l-.9-.64,0,0-.95-.57,0,0-1-.5h0l-1-.42h0l-1.08-.33h0l-1.12-.25h0l-1.16-.15h0l-1.18,0h0l-1.19,0h0l-1.15.15h0l-1.12.25h0l-1.09.33h0l-1,.42h0l-1,.5,0,0-1,.57,0,0-.9.64h0l-.84.72v0l-.79.78h0l-.72.85v0l-.65.89v0l-.58,1v0l-.5,1v0l-.42,1v0l-.32,1.08v0l-.24,1.13v0l-.15,1.15v0l0,1.19v0l0,1.17v0l.15,1.16v0l.24,1.12v0l.32,1.09v0l.42,1v0l.5,1v0l.58,1v0l.65.9v0l.72.85h0l.79.79h0l.84.71,0,0,.9.65h0l1,.58h0l1,.5h0l1,.41h0l1.09.33h0l1.12.24h0l1.15.14h0Zm169-41-1.18-.05-1.14-.15-1.13-.24-1.08-.33-1-.42-1-.5-1-.56-.9-.65-.83-.72-.78-.78-.72-.84-.64-.9-.57-1-.5-1-.42-1-.33-1.08-.24-1.12-.15-1.15-.05-1.18.05-1.18.15-1.15.24-1.12.33-1.09.42-1,.5-1,.57-1,.64-.9.72-.83.78-.78.83-.72.9-.65,1-.57,1-.49,1-.43,1.08-.32,1.13-.24,1.14-.16,1.18,0,1.18,0,1.15.16,1.12.24,1.08.32,1,.43,1,.49,1,.57.9.65.83.72.79.78.71.83.65.9.57,1,.5,1,.41,1,.34,1.09.24,1.12.14,1.15,0,1.18,0,1.18-.14,1.15-.24,1.12-.34,1.08-.41,1-.5,1-.57,1-.65.9-.71.84-.79.78-.83.72-.9.65-1,.56-1,.5-1,.42-1.08.33-1.12.24-1.15.15Zm0,.31h0l1.17,0h0l1.15-.14h0l1.12-.24h0l1.08-.33h0l1-.42h0l1-.5,0,0,.94-.57h0l.91-.65v0l.84-.71,0,0,.79-.78v0l.71-.84,0,0,.65-.9v0l.58-1v0l.5-1v0l.41-1.05v0l.33-1.08v0l.24-1.12v0l.14-1.16v0l0-1.18v0l0-1.19v0l-.14-1.15v0l-.24-1.12v0l-.33-1.09v0l-.41-1v0l-.5-1v0l-.58-1v0l-.65-.9,0,0-.71-.84h0l-.79-.78v0l-.84-.72h0l-.91-.65,0,0-.94-.57,0,0-1-.49h0l-1-.43h0l-1.08-.33h0l-1.12-.24h0l-1.15-.15h0l-1.17,0h0l-1.19,0h0l-1.15.15h0l-1.13.24h0l-1.08.33h0l-1.05.43h0l-1,.49,0,0-1,.57,0,0-.9.65h0l-.83.72,0,0-.78.78h0l-.73.84v0l-.64.9,0,0-.57,1,0,0-.49,1v0l-.42,1v0l-.33,1.09v0l-.25,1.12v0l-.15,1.15v0l0,1.19v0l0,1.18v0l.15,1.16v0l.25,1.12v0l.33,1.08v0l.42,1.05v0l.49,1,0,0,.57,1,0,0,.64.9v0l.73.85h0l.78.78,0,0,.83.71,0,0,.9.65h0l1,.57,0,0,1,.5h0l1.05.42h0l1.08.33h0l1.13.24h0l1.15.14h0Zm-105.61-49.56-1.18,0-1.15-.15-1.12-.24-1.09-.33-1-.42-1-.5-1-.57-.9-.65-.83-.71-.78-.78-.72-.84-.65-.9-.56-1-.5-1-.43-1-.32-1.09-.24-1.12-.15-1.15-.05-1.17.05-1.19.15-1.14.24-1.12.32-1.09.43-1,.5-1,.56-.95.65-.9.72-.83.78-.79.83-.72.9-.64,1-.58,1-.49,1-.42,1.09-.33,1.12-.24,1.15-.15,1.18,0,1.18,0,1.15.15,1.12.24,1.08.33,1,.42,1,.49,1,.58.9.64.84.72.78.79.72.83.65.9.57.95.49,1,.42,1,.33,1.09.25,1.12.14,1.14,0,1.19,0,1.17-.14,1.15-.25,1.12-.33,1.09-.42,1-.49,1-.57,1-.65.9-.72.84-.78.78-.84.71-.9.65-1,.57-1,.5-1,.42-1.08.33-1.12.24-1.15.15Zm0,.32h0l1.17-.05h0l1.16-.15h0l1.12-.24h0l1.08-.34h0l1-.42h0l1-.5h0l.95-.57,0,0,.9-.65h0l.84-.72h0l.79-.78v0l.71-.85h0l.65-.9v0l.58-.95v0l.5-1v0l.41-1v0l.33-1.08v0l.24-1.12v0l.14-1.15v0l0-1.18v0l0-1.18v0l-.14-1.15v0l-.24-1.12v0l-.33-1.09v0l-.41-1.05v0l-.5-1v0l-.58-1v0l-.65-.9,0,0-.71-.84v0l-.79-.78h0l-.85-.72,0,0-.9-.64h0l-.95-.59h0l-1-.49h0l-1-.42h0l-1.08-.32h0l-1.12-.24h0l-1.16-.15h0l-1.17,0h0l-1.19,0h0L697,977h0l-1.12.24h0l-1.09.32h0l-1,.42h0l-1,.49h0l-1,.59h0l-.9.64,0,0-.84.72h0l-.78.78,0,0-.72.84v0l-.65.9v0l-.57,1,0,0-.5,1v0l-.43,1.05v0l-.33,1.09v0l-.24,1.12v0l-.16,1.15v0l0,1.18v0l0,1.18v0l.16,1.15v0l.24,1.12v0l.33,1.08v0l.43,1v0l.5,1,0,0,.57.95v0l.65.9v0l.72.84,0,0,.78.78h0l.84.72h0l.9.65,0,0,1,.57h0l1,.5h0l1,.42h0l1.09.34h0l1.12.24h0l1.15.15h0Zm-92.14-6.07-1.18-.06-1.15-.14-1.12-.25-1.09-.33-1-.41-1-.5-1-.57-.9-.64-.84-.72-.78-.79-.72-.83-.65-.9-.56-1-.5-1-.42-1-.33-1.09-.24-1.12-.15-1.14-.06-1.19.06-1.17.15-1.15.24-1.13.33-1.08.42-1,.5-1,.56-.95.65-.9.72-.84.78-.78.84-.71.9-.65,1-.57,1-.5,1-.42,1.09-.33,1.12-.24,1.15-.15,1.18,0,1.18,0,1.15.15,1.12.24,1.09.33,1,.42,1,.5,1,.57.9.65.84.71.78.78.72.84.65.9.57.95.49,1,.42,1,.33,1.08.24,1.13.15,1.15.05,1.17-.05,1.19-.15,1.14-.24,1.12-.33,1.09-.42,1-.49,1-.57,1-.65.9-.72.83-.78.79-.84.72-.9.64-1,.57-1,.5-1,.41-1.09.33-1.12.25-1.15.14Zm0,.31h0l1.18-.06h0l1.16-.14h0l1.12-.24h0l1.09-.33h0l1-.41h0l1-.5h0l1-.58h0l.9-.64,0,0,.85-.72h0l.78-.79,0,0,.71-.84h0l.65-.9v0l.58-.95v0l.5-1v0l.41-1v0l.33-1.09v0l.24-1.12v0l.14-1.15v0l0-1.18v0l0-1.18v0L621,982.6v0l-.24-1.13v0l-.33-1.08v0l-.41-1v0l-.5-1v0l-.58-1v0l-.65-.9h0l-.71-.85,0,0-.78-.78h0l-.84-.72h0l-.9-.65,0,0-1-.57,0,0-1-.49h0l-1-.42h0l-1.09-.34h0l-1.12-.25h0l-1.16-.15h0l-1.18,0h0l-1.19,0h0l-1.15.15h0l-1.12.25h0l-1.09.34h0l-1,.42h0l-1,.49,0,0-1,.57,0,0-.9.65h0l-.84.72h0l-.78.78,0,0-.72.84v0l-.65.9v0l-.57,1,0,0-.5,1v0l-.42,1v0l-.33,1.08v0l-.24,1.13v0l-.14,1.16v0l-.06,1.18v0l.06,1.18v0l.14,1.15v0l.24,1.12v0l.33,1.09v0l.42,1v0l.5,1,0,0,.57.95v0l.65.9v0l.72.84h0l.78.79h0l.85.72,0,0,.9.64h0l1,.58h0l1,.5h0l1,.41h0l1.09.33h0l1.12.24h0l1.15.14h0Zm193-28.4-1.19,0-1.14-.15-1.12-.24-1.09-.33-1-.42-1-.5-1-.56-.9-.66-.83-.71-.78-.78-.72-.84-.65-.9-.57-.95-.5-1-.42-1-.32-1.08-.24-1.12-.16-1.15,0-1.18,0-1.19.16-1.14.24-1.12.32-1.09.42-1,.5-1,.57-1,.65-.9.72-.83.78-.78.83-.72.9-.65,1-.57,1-.5,1-.42,1.09-.32,1.12-.25,1.14-.15,1.19,0,1.18,0,1.15.15,1.12.25,1.08.32,1,.42,1,.5.95.57.9.65.84.72.78.78.71.83.66.9.56,1,.5,1,.42,1,.33,1.09.24,1.12.15,1.14,0,1.19,0,1.18-.15,1.15-.24,1.12-.33,1.08-.42,1-.5,1-.56.95-.66.9-.71.84-.78.78-.84.71-.9.66-.95.56-1,.5-1,.42-1.08.33-1.12.24-1.15.15Zm0,.31h0l1.18-.05h0l1.16-.15h0l1.13-.25h0l1.08-.33h0l1-.42h0l1-.5,0,0,.95-.57,0,0,.9-.65h0l.85-.71,0,0,.78-.78,0,0,.71-.85h0l.66-.9v0l.57-1,0,0,.5-1v0l.42-1v0l.33-1.08v0l.24-1.13v0l.15-1.16v0l.05-1.18v0l-.05-1.18v0l-.15-1.15v0l-.24-1.12v0l-.33-1.09v0l-.42-1v0l-.5-1,0,0-.57-1v0l-.66-.9v0l-.71-.84h0l-.78-.79h0l-.85-.72h0l-.9-.65h0l-.95-.58h0l-1-.5h0l-1-.42h0l-1.08-.32h0l-1.13-.24h0l-1.16-.15h0l-1.18-.05h0l-1.18.05h0l-1.15.15h0l-1.12.24h0l-1.09.32h0l-1,.42h0l-1,.5h0l-1,.58h0l-.9.65h0l-.84.72h0l-.79.79h0l-.72.84v0l-.65.9v0l-.58,1v0l-.5,1v0l-.42,1v0l-.33,1.09v0l-.24,1.12v0l-.15,1.15v0l-.05,1.18v0l.05,1.18v0l.15,1.16v0l.24,1.13v0l.33,1.08v0l.42,1v0l.5,1v0l.58,1v0l.65.9v0l.72.85h0l.79.78v0l.84.71h0l.9.65,0,0,1,.57,0,0,1,.5h0l1,.42h0l1.09.33h0l1.12.25h0l1.15.15h0Zm-138.2-47.09-1.19-.06-1.14-.14-1.12-.25-1.09-.33-1-.41-1-.5-1-.57-.9-.64-.83-.72-.79-.79-.72-.83-.64-.91-.58-.94-.49-1-.42-1-.33-1.09-.24-1.12-.15-1.14,0-1.19,0-1.18.15-1.14.24-1.13.33-1.08.42-1,.49-1,.58-.95.64-.9.72-.84.79-.78.83-.72.9-.64,1-.57,1-.5,1-.42,1.09-.33,1.12-.24,1.14-.15,1.19,0,1.17,0,1.15.15,1.13.24,1.08.33,1,.42,1,.5.95.57.9.64.84.72.78.78.71.84.65.9.57.95.5,1,.41,1,.34,1.08.24,1.13.15,1.14,0,1.18,0,1.19-.15,1.14-.24,1.12-.34,1.09-.41,1-.5,1-.57.94-.65.91-.71.83-.78.79-.84.72-.9.64-.95.57-1,.5-1,.41-1.08.33-1.13.25-1.15.14Zm0,.31h0l1.18-.06h0l1.16-.14h0l1.12-.24h0l1.08-.33h0l1-.41h0l1-.5h0l1-.58h0l.9-.64,0,0,.84-.72h0l.78-.79v0l.72-.84v0l.65-.9,0,0,.57-.95,0,0,.49-1v0l.42-1v0l.34-1.09v0l.24-1.12v0l.15-1.15v0l0-1.18v0l0-1.19v0l-.15-1.15v0l-.24-1.13v0l-.34-1.08v0l-.42-1v0l-.49-1,0,0-.57-1,0,0-.65-.9h0l-.72-.85v0l-.78-.78,0,0-.84-.72h0l-.9-.64,0,0-1-.57,0,0-1-.49h0l-1-.42h0l-1.08-.34h0l-1.12-.25h0l-1.16-.15h0l-1.18,0h0l-1.18,0h0l-1.15.15h0l-1.12.25h0l-1.09.34h0l-1,.42h0l-1,.49,0,0-.95.57,0,0-.9.64h0l-.84.72,0,0-.78.78h0l-.72.85,0,0-.64.9v0l-.59,1v0l-.49,1v0l-.42,1v0l-.32,1.08v0l-.24,1.13v0l-.15,1.15v0l-.05,1.19v0l.05,1.18v0l.15,1.15v0l.24,1.12v0l.32,1.09v0l.42,1v0l.49,1v0l.59.95v0l.64.9,0,0,.72.84h0l.78.79h0l.84.72,0,0,.9.64h0l.95.58h0l1,.5h0l1,.41h0l1.09.33h0l1.12.24h0l1.15.14h0Zm86.4-49.27-1.18,0-1.14-.15-1.12-.24-1.09-.33-1-.42-1-.5-1-.56-.9-.65-.84-.72-.78-.78-.72-.84-.64-.9-.57-.95-.5-1-.41-1-.34-1.09-.24-1.12-.15-1.15,0-1.18,0-1.18.15-1.15.24-1.12.34-1.09.41-1,.5-1,.57-1,.64-.89.72-.84.78-.78.84-.72.9-.65,1-.57,1-.49,1-.42,1.09-.33,1.12-.24,1.14-.15,1.18-.06,1.18.06,1.15.15,1.12.24,1.08.33,1,.42,1,.49,1,.57.9.65.83.72.79.78.71.84.65.89.57,1,.5,1,.41,1,.34,1.09.24,1.12.14,1.15.05,1.18-.05,1.18-.14,1.15-.24,1.12-.34,1.09-.41,1-.5,1-.57.95-.65.9-.71.84-.79.78-.83.72-.9.65-1,.56-1,.5-1,.42-1.08.33-1.12.24-1.15.15Zm0,.31h0l1.18,0h0l1.15-.14h0l1.12-.24h0l1.08-.33h0l1.05-.42h0l1-.5,0,0,1-.57h0l.9-.65v0l.85-.71,0,0,.78-.78v0l.72-.84v0l.65-.9v0l.58-1v0l.5-1v0l.41-1v0l.33-1.09v0l.24-1.12v0l.15-1.16v0l0-1.18v0l0-1.19v0l-.15-1.15v0l-.24-1.12v0l-.33-1.09v0l-.41-1v0l-.5-1v0l-.58-1v0l-.65-.89v0l-.72-.84v0l-.78-.78,0,0-.84-.72h0l-.9-.65h0l-1-.58h0l-1-.5h0l-1.05-.42h0l-1.08-.33h0l-1.12-.24h0l-1.15-.14h0l-1.18-.06h0l-1.18.06h0l-1.15.14h0l-1.12.24h0l-1.08.33h0l-1,.42h0l-1,.5h0l-.95.58h0l-.91.65h0l-.83.72,0,0-.78.78h0l-.72.85,0,0-.64.89,0,0-.57,1v0l-.5,1v0l-.42,1v0l-.34,1.09v0l-.24,1.12v0l-.15,1.15v0l0,1.19v0l0,1.18v0l.15,1.16v0l.24,1.12v0l.34,1.09v0l.42,1v0l.5,1v0l.57,1,0,0,.64.9,0,0,.72.85h0l.78.78,0,0,.83.71,0,0,.91.65h0l.95.57,0,0,1,.5h0l1,.42h0l1.08.33h0l1.12.24h0l1.15.14h0Zm109.44-5.36-1.18,0-1.15-.15-1.12-.24-1.08-.33-1-.42-1-.49-.95-.57-.9-.65-.84-.72-.78-.78-.72-.84-.65-.9-.57-1-.49-1-.42-1-.33-1.08-.25-1.12-.14-1.15-.05-1.18.05-1.18.14-1.15.25-1.12.33-1.09.42-1,.49-1,.57-1,.65-.9.72-.83.78-.78.84-.72.9-.65.95-.57,1-.49,1-.43,1.08-.32,1.12-.24,1.15-.16,1.18,0,1.18,0,1.15.16,1.12.24,1.09.32,1,.43,1,.49,1,.57.89.65.84.72.78.78.72.83.65.9.56,1,.5,1,.42,1,.33,1.09.24,1.12.15,1.15,0,1.18,0,1.18-.15,1.15-.24,1.12-.33,1.08-.42,1-.5,1-.56,1-.65.9-.72.84-.78.78-.84.72-.89.65-1,.57-1,.49-1,.42-1.09.33-1.12.24-1.15.15Zm0,.31h0l1.19-.05h0l1.15-.14h0l1.12-.24h0l1.09-.33h0l1-.41h0l1-.5h0l1-.58h0l.89-.65v0l.85-.71,0,0,.78-.78h0l.72-.85v0l.65-.9v0l.57-.95,0,0,.5-1v0l.42-1v0l.33-1.08v0l.24-1.12v0l.14-1.16v0l.06-1.18v0l-.06-1.19v0l-.14-1.15v0l-.24-1.12v0l-.33-1.09v0l-.42-1v0l-.5-1,0,0-.57-1v0l-.65-.9v0l-.72-.84h0l-.78-.78v0l-.85-.72h0l-.89-.65h0l-1-.58,0,0-1-.49h0l-1-.43h0l-1.09-.33h0l-1.12-.24h0l-1.15-.15h0l-1.19,0h0l-1.17,0h0l-1.16.15h0l-1.12.24h0l-1.08.33h0l-1.05.43h0l-1,.49,0,0-1,.58h0l-.9.65h0l-.85.72v0l-.79.78h0l-.71.84,0,0-.65.9v0l-.58,1v0l-.5,1v0l-.41,1v0l-.33,1.09v0L844,853.7v0l-.14,1.15v0l0,1.19v0l0,1.18v0l.14,1.16v0l.24,1.12v0l.33,1.08v0l.41,1v0l.5,1v0l.58.95v0l.65.9,0,0,.71.84v0l.79.78,0,0,.84.71,0,0,.9.65h0l1,.58h0l1,.5h0l1.05.41h0l1.08.33h0l1.12.24h0l1.16.14h0ZM657.89,843.14l-1.18,0-1.15-.16-1.12-.24-1.09-.32-1-.43-1-.49-1-.57-.9-.65-.84-.72-.78-.78-.72-.83-.65-.9-.57-1-.49-1-.42-1-.33-1.09-.25-1.12-.14-1.15,0-1.18,0-1.18.14-1.15.25-1.12.33-1.08.42-1,.49-1,.57-.95.65-.9.72-.84.78-.78.84-.72.9-.65,1-.57,1-.49,1-.42,1.09-.33,1.12-.24,1.15-.15,1.18-.05,1.18.05,1.15.15,1.12.24,1.09.33,1,.42,1,.49.95.57.9.65.84.72.78.78.72.84.65.9.56.95.5,1,.42,1,.33,1.08.24,1.12.15,1.15,0,1.18,0,1.18-.15,1.15-.24,1.12-.33,1.09-.42,1-.5,1-.56,1-.65.9-.72.83-.78.78-.84.72-.9.65-.95.57-1,.49-1,.43-1.09.32-1.12.24-1.15.16Zm0,.31h0l1.19-.05h0l1.15-.15h0l1.12-.24h0l1.09-.33h0l1-.43h0l1-.49,0,0,1-.58h0l.9-.65h0l.85-.72v0l.78-.78h0l.72-.84v0l.65-.9v0l.57-1,0,0,.5-1v0l.42-1v0l.33-1.09v0l.24-1.12v0l.15-1.15v0l.06-1.19v0l-.06-1.18v0l-.15-1.16v0l-.24-1.12v0l-.33-1.08v0l-.42-1.05v0l-.5-1,0,0-.57-1v0l-.65-.9v0l-.72-.85h0l-.78-.78,0,0-.85-.71v0l-.9-.65h0l-1-.58h0l-1-.5h0l-1-.42h0l-1.09-.33h0l-1.12-.24h0l-1.15-.14h0l-1.19,0h0l-1.17,0h0l-1.16.14h0l-1.12.24h0l-1.09.33h0l-1,.42h0l-1,.5h0l-.95.58h0l-.9.65,0,0-.84.71,0,0-.79.78v0l-.71.84,0,0-.65.9v0l-.58,1v0l-.5,1v0l-.41,1.05v0l-.33,1.08v0l-.24,1.12v0l-.14,1.16v0l-.05,1.18v0l.05,1.19v0l.14,1.15v0l.24,1.12v0l.33,1.09v0l.41,1v0l.5,1v0l.58,1v0l.65.9,0,0,.71.84h0l.79.78v0l.85.72h0l.9.65h0l.95.58,0,0,1,.49h0l1,.43h0l1.09.33h0l1.12.24h0l1.16.15h0Zm162.41-37-1.17,0-1.15-.15-1.13-.24-1.08-.33-1-.42-1-.5-1-.56-.9-.66-.84-.71-.78-.78-.71-.84-.65-.9-.57-.95-.5-1-.42-1-.33-1.08-.24-1.12-.15-1.15,0-1.18,0-1.19.15-1.14.24-1.12.33-1.09.42-1,.5-1,.57-1,.65-.9.71-.83.78-.78.84-.72.9-.65,1-.57,1-.5,1-.42,1.08-.32,1.13-.25,1.15-.15,1.17,0,1.19,0,1.14.15,1.12.25,1.09.32,1,.42,1,.5.95.57.9.65.83.72.79.78.72.83.64.9.57,1,.5,1,.41,1,.34,1.09.24,1.12.14,1.14.06,1.19-.06,1.18-.14,1.15-.24,1.12-.34,1.08-.41,1-.5,1-.57.95-.64.9-.72.84-.79.78-.83.71-.9.66-.95.56-1,.5-1,.42-1.09.33-1.12.24-1.14.15Zm0,.31h0l1.18-.05h0l1.15-.15h0l1.12-.25h0l1.09-.33h0l1.05-.42h0l1-.5,0,0,1-.57,0,0,.9-.65h0l.84-.71,0,0,.78-.78h0l.72-.85,0,0,.64-.9v0l.58-.95v0l.5-1v0l.41-1v0l.33-1.08v0l.24-1.13v0l.15-1.16v0l0-1.18v0l0-1.18v0l-.15-1.15v0l-.24-1.12v0l-.33-1.09v0l-.41-1.05v0l-.5-1v0l-.58-1v0l-.64-.9,0,0-.72-.84h0l-.78-.79h0l-.84-.72h0l-.9-.65h0l-1-.58h0l-1-.5h0l-1.05-.42h0l-1.09-.32h0l-1.12-.24h0l-1.15-.15h0l-1.18-.05h0l-1.18.05h0l-1.15.15h0l-1.12.24h0l-1.08.32h0l-1,.42h0l-1,.5h0l-.95.58h0l-.9.65h0l-.84.72h0l-.78.79h0l-.72.84v0l-.65.9,0,0-.57,1,0,0-.49,1v0l-.42,1.05v0l-.34,1.09v0l-.25,1.12v0l-.15,1.15v0l-.05,1.18v0l.05,1.18v0l.15,1.16v0l.25,1.13v0l.34,1.08v0l.42,1v0l.49,1,0,0,.57.95,0,0,.65.9h0l.72.85v0l.78.78,0,0,.85.71h0l.9.65,0,0,.95.57,0,0,1,.5h0l1,.42h0l1.08.33h0l1.12.25h0l1.15.15h0Z"/><path class="cls-28" d="M837.42,1147.26h0l.28-1.67.3-1.89.75-4.89.74-4.8.74-4.68.72-4.6.71-4.52.7-4.42.7-4.36.69-4.27.67-4.21.67-4.14.67-4.09.65-4,.65-4,.65-3.92.64-3.89.63-3.85.63-3.82.63-3.78.62-3.77.62-3.74.61-3.73.62-3.72.61-3.72.62-3.71.6-3.72.61-3.73.61-3.74.61-3.76.61-3.77.6-3.81.62-3.84.61-3.87.62-3.92.61-3.95.63-4,.62-4.07.63-4.12.64-4.19.63-4.25.65-4.33.64-4.41.66-4.48.67-4.58.66-4.66.68-4.76.69-4.86.54-3.92.56-3.92.57-3.93.58-3.91.59-3.93.6-3.9.63-3.9.64-3.89.65-3.87.68-3.86.71-3.85.73-3.83.76-3.8.78-3.79.82-3.76.85-3.73.89-3.71.91-3.67,1-3.64,1-3.61,1-3.57,1.09-3.54,1.12-3.49,1.18-3.46,1.23-3.41,1.28-3.36,1.33-3.31,1.39-3.27,1.44-3.21,1.5-3.16,1.56-3.11,1.62-3,1.68-3,1.75-2.93,1.82-2.86,1.89-2.8,2-2.73,2-2.66,2.11-2.58,2.13-1.21L915.7,816l2.29-1.11,2.36-1.05,2.42-1,2.5-.95,2.55-.91,2.62-.86,2.68-.81,2.72-.77,1.49-.39v0l-.32-.21-1.23.32h0L933,809h0l-2.68.81h0l-2.62.86h0l-2.56.91h0l-2.5,1h0l-2.42,1h0l-2.36,1.06h0l-2.29,1.1h0l-2.22,1.16h0l-2.14,1.22-.08.07L909,820.72h0l-2,2.66h0l-2,2.73h0l-1.89,2.8h0l-1.82,2.86h0l-1.75,2.93h0l-1.68,3h0l-1.63,3h0l-1.56,3.11-1.5,3.16h0l-1.44,3.21h0l-1.38,3.26h0L889,856.88l-1.28,3.36h0l-1.23,3.41h0l-1.17,3.46-1.13,3.49h0l-1.09,3.54h0l-1,3.58h0l-1,3.61h0l-1,3.65-.92,3.67-.89,3.7h0l-.85,3.73-.81,3.76h0l-.79,3.79-.75,3.8-.74,3.83h0l-.7,3.84-.68,3.86-.66,3.88-.64,3.88h0l-.62,3.9-.61,3.91-.6,3.92-.57,3.91-.57,3.93-.56,3.92-.55,3.92-.68,4.86-.68,4.76-.67,4.67-.66,4.57-.66,4.48-.64,4.41-.65,4.33-.63,4.25-.64,4.19-.63,4.12-.62,4.07-.63,4-.61,4-.62,3.92-.6,3.87-.62,3.83h0l-.61,3.8-.61,3.78-.61,3.76-.61,3.74-.6,3.73-.61,3.72-.62,3.71-.61,3.72-.61,3.72-.62,3.72-.61,3.75-.63,3.76-.62,3.79-.63,3.81-.64,3.86-.64,3.88-.64,3.93-.65,4-.66,4-.66,4.08-.68,4.15h0l-.67,4.21-.68,4.27-.7,4.35h0l-.7,4.42-.72,4.52h0l-.72,4.6-.74,4.69-.74,4.79-.75,4.89-.29,1.89-.25,1.46Zm92.2-95.07.49,0,.48-.11.48-.2.47-.28.45-.35.43-.45.4-.53.11-.17.16-.26.21-.36.24-.45.32-.55.34-.63.83-1.53.48-.89.51-1,.57-1.05.61-1.14.65-1.2.68-1.28.72-1.36L940,1037l.8-1.49.84-1.56.87-1.62.91-1.69.95-1.75,1-1.81,1-1.86,1-1.93,1.08-2,1.11-2,1.14-2.07,1.16-2.12,1.2-2.17,1.23-2.22,1.25-2.25,1.29-2.3,1.3-2.33,1.34-2.36,1.36-2.41,1.38-2.44,1.41-2.45,1.43-2.5,1.45-2.52,1.47-2.55,1.5-2.56L971,981.4l1.53-2.61,1.55-2.62,1.56-2.65,1.59-2.65,1.6-2.66,1.61-2.67,1.64-2.68,1.64-2.69,1.66-2.69,1.67-2.69,1.68-2.69,1.22-1.93,0,0-.37,0-1.09,1.74-1.68,2.69-1.67,2.7L983.5,960l-1.65,2.7-1.63,2.68-1.61,2.67-1.6,2.66-1.59,2.66L973.85,976l-1.55,2.62-1.53,2.61-1.51,2.59-1.49,2.56h0L966.29,989l-1.45,2.52L963.41,994,962,996.42l-1.38,2.44-1.36,2.4-1.34,2.37-1.3,2.33-1.29,2.3-1.25,2.25-1.23,2.22-1.2,2.16-1.17,2.12-1.14,2.08-1.1,2-1.08,2-1,1.92-1,1.87-1,1.8-.94,1.76h0l-.91,1.69-.87,1.62-.85,1.57-.8,1.49-.77,1.42-.72,1.36-.68,1.28-.65,1.21-.6,1.13-.57,1.06-.52,1-.48.89-.82,1.52-.35.64-.31.55-.24.45-.2.35-.16.26-.1.15-.38.51-.41.42-.41.32-.44.26-.43.18-.44.1-.44,0-.44,0-.43-.1-.41-.17-.4-.22-.37-.3-.33-.36-.31-.42-.27-.48-.22-.54-.17-.59-.11-.66,0-.71,0-.77.1-.81.18-.87,1.33-3.62,1.37-3.64,1.43-3.64,1.46-3.64,1.51-3.64,1.55-3.63,1.59-3.63,1.62-3.63,1.66-3.63,1.7-3.6,1.73-3.61,1.76-3.59,1.79-3.58,1.81-3.56,1.84-3.55,1.86-3.54,1.89-3.51,1.9-3.49,1.93-3.47,1.94-3.45,1.95-3.43,2-3.4,2-3.37,2-3.35,2-3.31,2-3.29,2-3.24,2-3.22,2-3.19,1.85-2.9,0-.36V940h0l-.06.08-2,3.14-2,3.19-2,3.22-2,3.26-2,3.28-2,3.32-2,3.34-2,3.37-2,3.41L959.82,973l-1.94,3.46L955.94,980l-1.9,3.5L952.16,987l-1.87,3.53-1.84,3.55-1.82,3.57-1.78,3.58-1.76,3.59-1.73,3.61-1.7,3.61-1.66,3.62-1.63,3.63-1.59,3.64-1.55,3.64-1.51,3.64-1.47,3.65-1.42,3.64-1.37,3.65-1.33,3.64-.2.89-.1.85,0,.79.05.74.12.7.17.62.24.58.29.51.32.46.37.38.41.32.43.26.46.18.47.11Zm87.19-141.7,1.68-2.26,1.76-2.37,1.78-2.32,1.76-2.29,1.77-2.24,1.76-2.2,1.75-2.16,1.75-2.11,1.75-2.07,1.74-2,1.72-2,1.72-1.91,1.71-1.86,1.7-1.79,1.7-1.74,1.67-1.67,1.67-1.62,1.66-1.55,1.29-1.22,1.2-1.19,1.1-1.15,1-1.12.9-1.09.81-1.05.73-1,.63-1,.56-.93.47-.91.38-.86.31-.84.23-.78.16-.75.09-.7,0-.67,0-.63-.11-.58-.17-.53-.23-.5-.3-.45-.34-.41-.39-.36-.45-.32-.5-.27-.54-.22-.58-.17-.61-.13-.67-.07-.69,0-.73,0-.75.06-.79.13-.81.17-.84.23-.85.28-.89.34-.89.39-.9.43-.92.51-.93.54-.93.61-.94.67-1,.72-.94.78-.94.84-.93.89-.93,1-.92,1-.84,1-.91,1.06-1,1.14-1,1.23-1.08,1.3-1.14,1.4-1.2,1.46-1.25,1.55-1.3,1.63-1.35,1.69-1.4,1.78-1.44,1.84-1.48,1.91-1.53,2-1.58,2-1.6,2.11-1.64,2.18-1.68,2.25-1.71,2.3-1.75,2.37-1.56,2.14,0,0,.39,0,1.4-1.93,1.75-2.37,1.71-2.3,1.68-2.24,1.64-2.18,1.6-2.11,1.57-2.05,1.53-2,1.48-1.91,1.44-1.85,1.4-1.77,1.35-1.69,1.3-1.62,1.25-1.54,1.2-1.47,1.14-1.39,1.07-1.31,1-1.23,1-1.14.9-1.06.84-1,.92-1,.92-1,.92-.88.93-.83.94-.78.93-.71.93-.66.93-.6.91-.54.91-.5.89-.43.88-.38.87-.33.84-.28.82-.22.8-.18.76-.11.74-.07.71,0,.67,0,.64.07.59.12.55.17.51.2.46.25.41.3.37.33.32.38.27.42.22.46.16.5.1.54.05.6,0,.64-.09.67-.16.73-.22.76-.3.81-.38.84-.46.9-.54.92-.63,1-.71,1-.81,1-.89,1.08-1,1.12-1.1,1.14-1.19,1.19-1.29,1.21-1.65,1.55h0l-1.67,1.61h0l-1.67,1.68-1.7,1.74h0l-1.69,1.79-1.71,1.86h0l-1.73,1.91h0l-1.72,2-1.74,2h0l-1.74,2.07h0l-1.75,2.11-1.76,2.16-1.76,2.2h0l-1.76,2.24-1.77,2.29h0l-1.78,2.33-1.76,2.36h0l-1.46,2v.47Z"/><path class="cls-29" d="M305.79,929.46h.31l0,0-.48-1.07-.56-1.44-.47-1.43-.39-1.41-.3-1.4-.22-1.38-.14-1.37-.07-1.36v-1.35l.08-1.34.14-1.32.2-1.33.26-1.31.32-1.3.37-1.31.42-1.29.48-1.3.51-1.28.55-1.29.6-1.28.63-1.28.66-1.29.7-1.28.71-1.29.74-1.29.76-1.29.79-1.3.79-1.3.8-1.31.82-1.31.82-1.33.82-1.33.82-1.33.82-1.35.81-1.37.8-1.37.8-1.39.05-.1,0,0-.25-.13-.06.1-.79,1.39-.79,1.36-.82,1.37-.81,1.35-.82,1.34-.82,1.32-.82,1.32-.82,1.32h0l-.8,1.31-.8,1.31-.78,1.29-.76,1.3h0l-.74,1.29-.72,1.29h0l-.69,1.28-.67,1.29h0l-.63,1.28h0l-.59,1.28h0l-.55,1.29h0l-.52,1.29h0l-.47,1.29h0l-.43,1.3h0l-.37,1.3h0l-.32,1.31h0l-.26,1.31h0l-.2,1.33h0l-.14,1.33v0l-.07,1.34h0v1.37l.07,1.35v0l.14,1.37h0l.23,1.39v0l.3,1.4h0l.38,1.42h0l.47,1.43h0l.56,1.45h0ZM322,877.8l.08-.15.73-1.43.71-1.45.67-1.47.56-.84.63-.78L326,871l0,0-.22-.18-.69.69,0,0-.63.79,0,0-.56.84,0,0-.68,1.46-.7,1.45-.73,1.42-.08.15.25.14Z"/></g></g></svg>